<svg width="68" height="68" viewBox="0 0 68 68" fill="none" xmlns="http://www.w3.org/2000/svg">
<rect width="68" height="68" rx="6" fill="#191F33"/>
<path d="M35.1809 22.4371C37.0197 20.0124 39.576 20.0006 39.576 20.0006C39.576 20.0006 39.9563 22.2802 38.1295 24.4763C36.179 26.8211 33.962 26.4374 33.962 26.4374C33.962 26.4374 33.5458 24.5933 35.1809 22.4371ZM34.1959 28.0343C35.1419 28.0343 36.8975 26.7334 39.1828 26.7334C43.1164 26.7334 44.6639 29.5337 44.6639 29.5337C44.6639 29.5337 41.6373 31.0819 41.6373 34.8385C41.6373 39.0762 45.4076 40.5366 45.4076 40.5366C45.4076 40.5366 42.772 47.9584 39.212 47.9584C37.577 47.9584 36.3058 46.856 34.583 46.856C32.8274 46.856 31.0851 47.9995 29.9504 47.9995C26.6996 47.9996 22.5928 40.9593 22.5928 35.3001C22.5928 29.7322 26.069 26.8114 29.3295 26.8114C31.4491 26.8114 33.094 28.0343 34.1959 28.0343Z" fill="white"/>
</svg>
