<svg width="68" height="68" viewBox="0 0 68 68" fill="none" xmlns="http://www.w3.org/2000/svg">
<rect width="68" height="68" rx="6" fill="#EA4C89"/>
<g clip-path="url(#clip0_302_3182)">
<path d="M20 34C20 31.4613 20.6254 29.1187 21.876 26.972C23.1267 24.8253 24.8254 23.1267 26.972 21.876C29.1187 20.6253 31.4614 20 34 20C36.5387 20 38.8814 20.6253 41.028 21.876C43.1747 23.1267 44.8734 24.8253 46.124 26.972C47.3747 29.1187 48 31.4613 48 34C48 36.5387 47.3747 38.8813 46.124 41.028C44.8734 43.1747 43.1747 44.8733 41.028 46.124C38.8814 47.3747 36.5387 48 34 48C31.4614 48 29.1187 47.3747 26.972 46.124C24.8254 44.8733 23.1267 43.1747 21.876 41.028C20.6254 38.8813 20 36.5387 20 34ZM22.324 34C22.324 36.912 23.304 39.4787 25.264 41.7C26.16 39.9453 27.5787 38.2747 29.52 36.688C31.4614 35.1013 33.356 34.1027 35.204 33.692C34.924 33.0387 34.6534 32.4507 34.392 31.928C31.1814 32.9547 27.7094 33.468 23.976 33.468C23.248 33.468 22.7067 33.4587 22.352 33.44C22.352 33.5147 22.3474 33.608 22.338 33.72C22.3287 33.832 22.324 33.9253 22.324 34ZM22.688 31.116C23.0987 31.1533 23.7054 31.172 24.508 31.172C27.6254 31.172 30.584 30.752 33.384 29.912C31.9654 27.392 30.4067 25.292 28.708 23.612C27.2334 24.3587 25.9687 25.3947 24.914 26.72C23.8594 28.0453 23.1174 29.5107 22.688 31.116ZM26.86 43.212C28.9694 44.8547 31.3494 45.676 34 45.676C35.3814 45.676 36.7534 45.4147 38.116 44.892C37.7427 41.7 37.0147 38.6107 35.932 35.624C34.2147 35.9973 32.4834 36.94 30.738 38.452C28.9927 39.964 27.7 41.5507 26.86 43.212ZM31.144 22.716C32.7867 24.4147 34.308 26.5333 35.708 29.072C38.2467 28.008 40.16 26.6547 41.448 25.012C39.2827 23.22 36.8 22.324 34 22.324C33.048 22.324 32.096 22.4547 31.144 22.716ZM36.716 31.06C36.996 31.6573 37.3134 32.4133 37.668 33.328C39.0494 33.1973 40.552 33.132 42.176 33.132C43.3334 33.132 44.4814 33.16 45.62 33.216C45.4707 30.6773 44.556 28.4187 42.876 26.44C41.6627 28.2507 39.6094 29.7907 36.716 31.06ZM38.368 35.288C39.32 38.0507 39.964 40.888 40.3 43.8C41.7747 42.848 42.9787 41.6253 43.912 40.132C44.8454 38.6387 45.4054 37.024 45.592 35.288C44.2294 35.1947 42.988 35.148 41.868 35.148C40.8414 35.148 39.6747 35.1947 38.368 35.288Z" fill="white"/>
</g>
<defs>
<clipPath id="clip0_302_3182">
<rect width="28" height="28" fill="white" transform="translate(20 20)"/>
</clipPath>
</defs>
</svg>
