<svg width="68" height="68" viewBox="0 0 68 68" fill="none" xmlns="http://www.w3.org/2000/svg">
<rect width="68" height="68" rx="6" fill="#EB524F"/>
<g clip-path="url(#clip0_302_3168)">
<path d="M29.5238 22.5734C30.7719 22.9622 31.1592 23.9666 31.1592 25.1114C31.1484 26.0186 31.0408 26.9258 30.8257 27.8115C30.363 29.8311 29.7928 31.8291 29.3194 33.838C28.932 35.4904 28.577 37.1644 28.5662 38.8709C28.577 39.3353 28.6523 39.7997 28.7814 40.2425C29.0289 41.1281 29.7713 41.1929 30.3307 40.6529C30.6858 40.3073 31.0086 39.9401 31.2991 39.5405C32.6977 37.672 33.935 35.6848 34.9894 33.6004C36.0116 31.6023 38.3463 27.0879 38.4862 26.8178C39.2178 25.4678 41.2405 25.6946 41.8538 27.0122C42.1981 27.7251 42.3917 28.5135 42.424 29.3019C42.4778 31.0083 42.6392 35.7712 42.7145 36.4516C42.8544 37.7692 43.6936 38.1905 44.8125 37.456C45.4904 37.0132 46.1036 36.4516 46.7169 35.9224C47.2871 35.4148 47.5884 35.4688 47.8681 36.1816C48.1156 36.808 48.008 37.4344 47.8036 38.0284C47.115 40.0373 45.6195 41.1065 43.629 41.5385C42.9942 41.6789 42.3379 41.6897 41.6924 41.5817C40.2614 41.3441 39.3469 40.5125 38.7982 39.2273C38.271 37.9852 38.1096 34.4536 37.9912 34C37.7976 34.4104 35.5059 39.1517 34.3009 40.9553C33.5477 42.1109 32.6332 43.1585 31.5788 44.055C30.5352 44.9298 29.3516 45.4698 27.9637 45.5022C26.2853 45.5454 25.0695 44.7786 24.2303 43.3529C23.6923 42.4349 23.4664 41.4089 23.3911 40.3505C23.2835 38.8709 23.5202 37.4236 23.843 35.9764C23.9506 35.512 24.0259 35.0368 24.1442 34.4428C23.6816 34.6804 23.3803 34.8964 23.036 35.0152C22.6272 35.1556 22.1861 35.296 21.7557 35.2852C20.2279 35.242 20.002 33.5464 20.002 33.2656C20.5184 32.866 21.0671 32.4987 21.5405 32.0667C23.7999 30.0147 25.4999 27.5523 26.7264 24.7658C27.1353 23.8478 27.6409 23.0594 28.5447 22.5734C28.846 22.4438 29.1149 22.433 29.5238 22.5734Z" fill="white"/>
</g>
<defs>
<clipPath id="clip0_302_3168">
<rect width="28" height="28" fill="white" transform="translate(20 20)"/>
</clipPath>
</defs>
</svg>
