<svg width="68" height="68" viewBox="0 0 68 68" fill="none" xmlns="http://www.w3.org/2000/svg">
<rect width="68" height="68" rx="6" fill="black"/>
<path d="M28.9698 47.9999C31.505 47.9999 33.5626 45.9093 33.5626 43.3333V38.6666H28.9698C26.4345 38.6666 24.377 40.7573 24.377 43.3333C24.377 45.9093 26.4345 47.9999 28.9698 47.9999Z" fill="#0ACF83"/>
<path d="M24.377 34C24.377 31.424 26.4345 29.3334 28.9698 29.3334H33.5626V38.6666H28.9698C26.4345 38.6666 24.377 36.576 24.377 34Z" fill="#A259FF"/>
<path d="M24.377 24.6667C24.377 22.0907 26.4345 20 28.9698 20H33.5626V29.3334H28.9698C26.4345 29.3334 24.377 27.2427 24.377 24.6667Z" fill="#F24E1E"/>
<path d="M33.5625 20H38.1554C40.6906 20 42.7482 22.0907 42.7482 24.6667C42.7482 27.2427 40.6906 29.3334 38.1554 29.3334H33.5625V20Z" fill="#FF7262"/>
<path d="M42.7482 34C42.7482 36.576 40.6906 38.6666 38.1554 38.6666C35.6201 38.6666 33.5625 36.576 33.5625 34C33.5625 31.424 35.6201 29.3334 38.1554 29.3334C40.6906 29.3334 42.7482 31.424 42.7482 34Z" fill="#1ABCFE"/>
</svg>
