<svg width="68" height="68" viewBox="0 0 68 68" fill="none" xmlns="http://www.w3.org/2000/svg">
<rect width="68" height="68" rx="6" fill="#6FDA44"/>
<path d="M41.5641 35.3285C40.2966 35.3285 39.1089 34.7932 38.0298 33.9217L38.2925 32.6914L38.304 32.6458C38.5379 31.3359 39.2802 29.1372 41.5641 29.1372C43.2769 29.1372 44.6701 30.527 44.6701 32.2357C44.6643 33.9387 43.2713 35.3285 41.5641 35.3285V35.3285ZM41.5641 25.9989C38.6464 25.9989 36.3855 27.8899 35.4664 30.9998C34.0617 28.898 32.9997 26.3748 32.3774 24.2503H29.2372V32.4008C29.2372 34.0071 27.9239 35.317 26.3138 35.317C24.7037 35.317 23.3906 34.0071 23.3906 32.4008V24.2503H20.25V32.4008C20.2386 35.7387 22.9621 38.4782 26.3079 38.4782C29.6538 38.4782 32.3773 35.7387 32.3773 32.4008V31.034C32.9881 32.304 33.7361 33.5855 34.6439 34.7248L32.7197 43.7467H35.9343L37.3274 37.2024C38.5492 37.9827 39.9538 38.4726 41.564 38.4726C45.0068 38.4726 47.8102 35.6589 47.8102 32.2243C47.8102 28.7954 45.0068 25.9989 41.564 25.9989H41.5641Z" fill="white"/>
</svg>
