<svg width="56" height="56" viewBox="0 0 56 56" fill="none" xmlns="http://www.w3.org/2000/svg">
<rect width="56" height="56" rx="4" fill="#1E60C6"/>
<path d="M20.1769 32.1009C20.0867 31.6129 19.9694 31.1339 19.9062 30.6458C19.6536 28.7388 20.0596 26.9764 21.1874 25.4038C22.0716 24.1656 23.2807 23.307 24.6701 22.7105C26.3393 21.9965 28.1348 21.6078 29.9483 21.5717C31.5634 21.5265 32.9709 22.123 34.1979 23.1352C35.4611 24.1836 36.4355 25.4761 37.1844 26.9312C37.5453 27.6362 37.8791 28.3592 38.222 29.0822C38.2581 29.1636 38.2851 29.254 38.3032 29.3443C37.825 29.6336 37.3648 29.9318 36.8776 30.1939C35.0731 31.1881 33.1243 31.8659 31.0942 32.2184C29.9844 32.4082 28.8656 32.5167 27.7468 32.589C26.6822 32.6613 25.6175 32.6974 24.5528 32.6703C23.1002 32.6342 21.6566 32.4082 20.1769 32.1009ZM22.4686 27.2566C22.4416 28.8472 23.7318 30.1306 25.3017 30.1487C26.8175 30.1668 28.234 29.0009 28.234 27.2927C28.234 25.5213 26.8716 24.4006 25.3468 24.4006C23.7679 24.4006 22.4776 25.6749 22.4686 27.2566ZM33.5573 28.0881C34.4145 28.1513 35.3709 27.4373 35.3799 26.2624C35.3889 25.2863 34.6039 24.4909 33.6295 24.4819H33.5934C32.6009 24.4638 31.7889 25.2592 31.7709 26.2443V26.2714C31.7709 27.3018 32.5378 28.0881 33.5573 28.0881Z" fill="white"/>
<path d="M38.3581 29.7511C38.4844 31.2695 38.1054 32.6071 37.3475 33.8363C36.319 35.4992 34.7851 36.5477 32.9806 37.2074C31.14 37.8762 29.1821 38.1383 27.2333 37.9937C26.0694 37.9124 24.8964 37.7407 23.8498 37.1894C22.0453 36.2313 20.9265 34.7039 20.34 32.7607C20.313 32.6433 20.3039 32.5167 20.2949 32.3992C26.6558 33.8724 32.6919 33.2217 38.3581 29.7511Z" fill="white"/>
<path d="M38.0599 24.2288C38.5291 24.0571 38.5291 24.048 38.4839 23.6052C38.4569 23.3521 38.4479 23.099 38.5742 22.855C38.6283 22.7556 38.6193 22.6291 38.6283 22.5116C38.6463 22.1501 38.9441 21.8699 39.305 21.8699C39.6659 21.8699 39.9727 22.1591 39.9907 22.5206C39.9907 22.8821 39.702 23.1804 39.3411 23.1985C39.2238 23.2075 39.1065 23.1985 38.9441 23.1985C38.926 23.3792 38.89 23.5419 38.908 23.6955C38.9621 24.1384 38.89 24.509 38.3847 24.6988L39.4133 26.5244L37.8704 27.4825C37.2208 25.9731 36.2283 24.7259 35.0373 23.5871L35.9576 22.4664C36.8148 22.8731 37.4554 23.5238 38.0599 24.2288ZM19.4915 29.8233L17.9937 29.3172C17.9215 28.4134 18.111 27.5728 18.4448 26.7504L17.9215 25.9189C17.7321 25.9189 17.5426 25.955 17.3802 25.9099C17.0193 25.8285 16.6674 25.7201 16.3336 25.5845C16.0719 25.476 15.9546 25.1145 16.0268 24.8524C16.1261 24.5361 16.4238 24.3372 16.7486 24.3644C17.0554 24.3915 17.308 24.6265 17.3531 24.9337C17.3712 25.0784 17.3531 25.232 17.3531 25.4128H18.1471C18.4809 25.5483 18.4629 25.955 18.7155 26.2171C19.2118 25.5664 19.699 24.9157 20.4388 24.4547L21.1245 24.988C20.6012 25.711 20.0418 26.3889 19.8524 27.2294C19.6629 28.079 19.6088 28.9285 19.4915 29.8233Z" fill="white"/>
<path d="M25.6271 22.1952L25.3203 21.436C26.1684 20.7582 27.1338 20.478 28.1534 20.3424C28.1714 20.0713 28.0361 19.9538 27.8286 19.8453C27.1248 19.4838 27.0075 18.6342 27.5669 18.1191C27.9008 17.8118 28.2978 17.7666 28.6947 17.9202C29.0556 18.0468 29.3083 18.3812 29.3353 18.7698C29.3985 19.1855 29.2 19.5923 28.8391 19.8001C28.7399 19.8544 28.6316 19.8995 28.5323 19.9447L28.6406 20.2882C29.5519 20.2701 30.4451 20.2791 31.3293 20.6316L31.203 21.3818C29.3353 21.3908 27.4406 21.2914 25.6271 22.1952Z" fill="white"/>
</svg> 