<svg width="312" height="82" viewBox="0 0 312 82" fill="none" xmlns="http://www.w3.org/2000/svg">
<rect x="1" y="1" width="310" height="80" rx="5" fill="white"/>
<rect x="1" y="1" width="310" height="80" rx="5" stroke="#E4E5E8" stroke-width="2" stroke-linecap="round" stroke-dasharray="12 8"/>
<path d="M35.9961 53C42.6235 53 47.9961 47.6274 47.9961 41C47.9961 34.3726 42.6235 29 35.9961 29C29.3687 29 23.9961 34.3726 23.9961 41C23.9961 47.6274 29.3687 53 35.9961 53Z" stroke="#0A65CC" stroke-width="2" stroke-miterlimit="10"/>
<path d="M31.0039 41H41.0039" stroke="#0A65CC" stroke-width="2" stroke-linecap="round" stroke-linejoin="round"/>
<path d="M35.9961 36V46" stroke="#0A65CC" stroke-width="2" stroke-linecap="round" stroke-linejoin="round"/>
<path d="M65.9787 35H64.348L68.0121 24.8182H69.7869L73.451 35H71.8203L68.9418 26.6676H68.8622L65.9787 35ZM66.2521 31.0128H71.5419V32.3054H66.2521V31.0128ZM77.5376 35.1491C76.9212 35.1491 76.371 34.9917 75.8871 34.6768C75.4065 34.3587 75.0286 33.9062 74.7536 33.3196C74.4818 32.7296 74.3459 32.022 74.3459 31.1967C74.3459 30.3714 74.4834 29.6655 74.7585 29.0788C75.0369 28.4922 75.4181 28.0431 75.902 27.7315C76.3859 27.42 76.9344 27.2642 77.5476 27.2642C78.0215 27.2642 78.4027 27.3438 78.6911 27.5028C78.9827 27.6586 79.2081 27.8409 79.3672 28.0497C79.5296 28.2585 79.6555 28.4425 79.745 28.6016H79.8345V24.8182H81.321V35H79.8693V33.8118H79.745C79.6555 33.9742 79.5263 34.1598 79.3572 34.3686C79.1915 34.5774 78.9628 34.7597 78.6712 34.9155C78.3795 35.0713 78.0017 35.1491 77.5376 35.1491ZM77.8658 33.8814C78.2933 33.8814 78.6546 33.7687 78.9496 33.5433C79.2479 33.3146 79.4732 32.9981 79.6257 32.5938C79.7815 32.1894 79.8594 31.7187 79.8594 31.1818C79.8594 30.6515 79.7831 30.1875 79.6307 29.7898C79.4782 29.392 79.2545 29.0821 78.9595 28.8601C78.6645 28.638 78.3 28.527 77.8658 28.527C77.4183 28.527 77.0455 28.643 76.7472 28.875C76.4489 29.107 76.2235 29.4235 76.071 29.8246C75.9219 30.2256 75.8473 30.678 75.8473 31.1818C75.8473 31.6922 75.9235 32.1513 76.076 32.5589C76.2285 32.9666 76.4538 33.2898 76.7521 33.5284C77.0537 33.7637 77.425 33.8814 77.8658 33.8814ZM86.3013 35.1491C85.6848 35.1491 85.1346 34.9917 84.6507 34.6768C84.1702 34.3587 83.7923 33.9062 83.5172 33.3196C83.2454 32.7296 83.1096 32.022 83.1096 31.1967C83.1096 30.3714 83.2471 29.6655 83.5222 29.0788C83.8006 28.4922 84.1818 28.0431 84.6657 27.7315C85.1496 27.42 85.6981 27.2642 86.3113 27.2642C86.7852 27.2642 87.1664 27.3438 87.4547 27.5028C87.7464 27.6586 87.9718 27.8409 88.1309 28.0497C88.2933 28.2585 88.4192 28.4425 88.5087 28.6016H88.5982V24.8182H90.0847V35H88.633V33.8118H88.5087C88.4192 33.9742 88.29 34.1598 88.1209 34.3686C87.9552 34.5774 87.7265 34.7597 87.4348 34.9155C87.1432 35.0713 86.7653 35.1491 86.3013 35.1491ZM86.6294 33.8814C87.057 33.8814 87.4183 33.7687 87.7132 33.5433C88.0115 33.3146 88.2369 32.9981 88.3894 32.5938C88.5452 32.1894 88.623 31.7187 88.623 31.1818C88.623 30.6515 88.5468 30.1875 88.3944 29.7898C88.2419 29.392 88.0182 29.0821 87.7232 28.8601C87.4282 28.638 87.0636 28.527 86.6294 28.527C86.182 28.527 85.8091 28.643 85.5108 28.875C85.2125 29.107 84.9872 29.4235 84.8347 29.8246C84.6855 30.2256 84.611 30.678 84.611 31.1818C84.611 31.6922 84.6872 32.1513 84.8397 32.5589C84.9921 32.9666 85.2175 33.2898 85.5158 33.5284C85.8174 33.7637 86.1886 33.8814 86.6294 33.8814ZM104.487 28.1293H102.936C102.877 27.7978 102.766 27.5062 102.603 27.2543C102.441 27.0024 102.242 26.7886 102.007 26.6129C101.771 26.4373 101.508 26.3047 101.216 26.2152C100.928 26.1257 100.621 26.081 100.296 26.081C99.7097 26.081 99.1844 26.2285 98.7203 26.5234C98.2596 26.8184 97.8951 27.2509 97.6266 27.821C97.3614 28.3911 97.2289 29.0871 97.2289 29.9091C97.2289 30.7377 97.3614 31.437 97.6266 32.0071C97.8951 32.5772 98.2613 33.008 98.7253 33.2997C99.1893 33.5914 99.7114 33.7372 100.291 33.7372C100.613 33.7372 100.918 33.6941 101.206 33.608C101.498 33.5185 101.761 33.3875 101.997 33.2152C102.232 33.0429 102.431 32.8324 102.593 32.5838C102.759 32.3319 102.873 32.0436 102.936 31.7188L104.487 31.7237C104.405 32.2242 104.244 32.6849 104.005 33.1058C103.77 33.5234 103.467 33.8847 103.095 34.1896C102.727 34.4912 102.307 34.7249 101.833 34.8906C101.359 35.0563 100.842 35.1392 100.281 35.1392C99.3998 35.1392 98.6143 34.9304 97.9249 34.5128C97.2355 34.0919 96.6919 33.4903 96.2942 32.7081C95.8998 31.9259 95.7026 30.9929 95.7026 29.9091C95.7026 28.822 95.9015 27.889 96.2992 27.1101C96.6969 26.3279 97.2405 25.728 97.9299 25.3104C98.6193 24.8894 99.4031 24.679 100.281 24.679C100.822 24.679 101.325 24.7569 101.793 24.9126C102.263 25.0651 102.686 25.2905 103.061 25.5888C103.435 25.8838 103.745 26.245 103.99 26.6726C104.235 27.0968 104.401 27.5824 104.487 28.1293ZM112.766 27.3636L109.997 35H108.406L105.632 27.3636H107.228L109.162 33.2401H109.241L111.17 27.3636H112.766ZM117.248 24.3409L113.967 36.5312H112.64L115.921 24.3409H117.248ZM118.63 35V24.8182H122.26C123.048 24.8182 123.703 24.9541 124.223 25.2259C124.747 25.4976 125.138 25.8738 125.397 26.3544C125.655 26.8317 125.784 27.3835 125.784 28.0099C125.784 28.633 125.654 29.1816 125.392 29.6555C125.133 30.1262 124.742 30.4924 124.218 30.7543C123.698 31.0161 123.043 31.147 122.255 31.147H119.505V29.8246H122.115C122.613 29.8246 123.017 29.7533 123.328 29.6108C123.643 29.4683 123.874 29.2611 124.02 28.9893C124.165 28.7176 124.238 28.3911 124.238 28.0099C124.238 27.6255 124.164 27.2924 124.015 27.0107C123.869 26.7289 123.638 26.5135 123.324 26.3643C123.012 26.2119 122.603 26.1357 122.096 26.1357H120.167V35H118.63ZM123.657 30.4062L126.172 35H124.422L121.956 30.4062H123.657ZM130.73 35.1541C129.978 35.1541 129.33 34.9934 128.786 34.6719C128.246 34.3471 127.828 33.8913 127.533 33.3047C127.242 32.7147 127.096 32.0237 127.096 31.2315C127.096 30.4493 127.242 29.7599 127.533 29.1634C127.828 28.5668 128.239 28.1011 128.766 27.7663C129.296 27.4316 129.916 27.2642 130.626 27.2642C131.056 27.2642 131.474 27.3355 131.878 27.478C132.283 27.6205 132.646 27.8442 132.967 28.1491C133.289 28.4541 133.542 28.8501 133.728 29.3374C133.913 29.8213 134.006 30.4096 134.006 31.1023V31.6293H127.936V30.5156H132.55C132.55 30.1245 132.47 29.7782 132.311 29.4766C132.152 29.1716 131.928 28.9313 131.64 28.7557C131.355 28.58 131.02 28.4922 130.635 28.4922C130.218 28.4922 129.853 28.5949 129.542 28.8004C129.233 29.0026 128.995 29.2678 128.826 29.5959C128.66 29.9207 128.577 30.2737 128.577 30.6548V31.5249C128.577 32.0353 128.667 32.4695 128.846 32.8274C129.028 33.1854 129.282 33.4588 129.606 33.6477C129.931 33.8333 130.311 33.9261 130.745 33.9261C131.027 33.9261 131.283 33.8864 131.515 33.8068C131.747 33.724 131.948 33.6013 132.117 33.4389C132.286 33.2765 132.415 33.076 132.505 32.8374L133.912 33.0909C133.799 33.5052 133.597 33.8681 133.305 34.1797C133.017 34.4879 132.654 34.7282 132.216 34.9006C131.782 35.0696 131.287 35.1541 130.73 35.1541ZM141.378 29.228L140.031 29.4666C139.974 29.2943 139.885 29.1302 139.762 28.9744C139.643 28.8187 139.48 28.6911 139.275 28.5916C139.069 28.4922 138.813 28.4425 138.504 28.4425C138.083 28.4425 137.732 28.5369 137.45 28.7259C137.169 28.9115 137.028 29.1518 137.028 29.4467C137.028 29.7019 137.122 29.9074 137.311 30.0632C137.5 30.219 137.805 30.3466 138.226 30.446L139.439 30.7244C140.142 30.8868 140.665 31.1371 141.01 31.4751C141.355 31.8132 141.527 32.2524 141.527 32.7926C141.527 33.25 141.394 33.6577 141.129 34.0156C140.867 34.3703 140.501 34.6487 140.031 34.8509C139.563 35.053 139.021 35.1541 138.405 35.1541C137.55 35.1541 136.852 34.9718 136.312 34.6072C135.772 34.2393 135.44 33.7173 135.317 33.0412L136.754 32.8224C136.844 33.197 137.028 33.4804 137.306 33.6726C137.585 33.8615 137.947 33.956 138.395 33.956C138.882 33.956 139.272 33.8549 139.563 33.6527C139.855 33.4472 140.001 33.197 140.001 32.902C140.001 32.6634 139.911 32.4628 139.732 32.3004C139.557 32.138 139.286 32.0154 138.922 31.9325L137.629 31.6491C136.917 31.4867 136.39 31.2282 136.048 30.8736C135.71 30.5189 135.541 30.0698 135.541 29.5263C135.541 29.0755 135.667 28.6811 135.919 28.343C136.171 28.005 136.519 27.7415 136.963 27.5526C137.407 27.3603 137.916 27.2642 138.489 27.2642C139.315 27.2642 139.964 27.4432 140.438 27.8011C140.912 28.1558 141.225 28.6314 141.378 29.228ZM147.999 31.8331V27.3636H149.49V35H148.029V33.6776H147.949C147.773 34.0852 147.492 34.425 147.104 34.6967C146.719 34.9652 146.24 35.0994 145.667 35.0994C145.177 35.0994 144.742 34.9917 144.365 34.7763C143.99 34.5575 143.695 34.2344 143.48 33.8068C143.267 33.3793 143.161 32.8506 143.161 32.2209V27.3636H144.648V32.0419C144.648 32.5623 144.792 32.9766 145.08 33.2848C145.369 33.593 145.743 33.7472 146.204 33.7472C146.482 33.7472 146.759 33.6776 147.034 33.5384C147.313 33.3991 147.543 33.1887 147.725 32.907C147.911 32.6252 148.002 32.2673 147.999 31.8331ZM151.488 35V27.3636H152.914V28.6065H153.009C153.168 28.1856 153.428 27.8575 153.789 27.6222C154.151 27.3835 154.583 27.2642 155.087 27.2642C155.597 27.2642 156.025 27.3835 156.37 27.6222C156.718 27.8608 156.975 28.1889 157.14 28.6065H157.22C157.402 28.1989 157.692 27.8741 158.09 27.6321C158.488 27.3868 158.962 27.2642 159.512 27.2642C160.204 27.2642 160.77 27.4813 161.207 27.9155C161.648 28.3497 161.868 29.0043 161.868 29.8793V35H160.382V30.0185C160.382 29.5014 160.241 29.1269 159.959 28.8949C159.677 28.6629 159.341 28.5469 158.95 28.5469C158.466 28.5469 158.09 28.696 157.821 28.9943C157.553 29.2893 157.419 29.6688 157.419 30.1328V35H155.937V29.924C155.937 29.5097 155.808 29.1766 155.549 28.9247C155.291 28.6728 154.954 28.5469 154.54 28.5469C154.258 28.5469 153.998 28.6214 153.76 28.7706C153.524 28.9164 153.334 29.1203 153.188 29.3821C153.045 29.6439 152.974 29.9472 152.974 30.2919V35H151.488ZM167.152 35.1541C166.399 35.1541 165.751 34.9934 165.208 34.6719C164.668 34.3471 164.25 33.8913 163.955 33.3047C163.663 32.7147 163.518 32.0237 163.518 31.2315C163.518 30.4493 163.663 29.7599 163.955 29.1634C164.25 28.5668 164.661 28.1011 165.188 27.7663C165.718 27.4316 166.338 27.2642 167.047 27.2642C167.478 27.2642 167.896 27.3355 168.3 27.478C168.705 27.6205 169.068 27.8442 169.389 28.1491C169.711 28.4541 169.964 28.8501 170.15 29.3374C170.335 29.8213 170.428 30.4096 170.428 31.1023V31.6293H164.358V30.5156H168.971C168.971 30.1245 168.892 29.7782 168.733 29.4766C168.574 29.1716 168.35 28.9313 168.062 28.7557C167.777 28.58 167.442 28.4922 167.057 28.4922C166.64 28.4922 166.275 28.5949 165.964 28.8004C165.655 29.0026 165.417 29.2678 165.248 29.5959C165.082 29.9207 164.999 30.2737 164.999 30.6548V31.5249C164.999 32.0353 165.089 32.4695 165.268 32.8274C165.45 33.1854 165.703 33.4588 166.028 33.6477C166.353 33.8333 166.733 33.9261 167.167 33.9261C167.448 33.9261 167.705 33.8864 167.937 33.8068C168.169 33.724 168.37 33.6013 168.539 33.4389C168.708 33.2765 168.837 33.076 168.927 32.8374L170.334 33.0909C170.221 33.5052 170.019 33.8681 169.727 34.1797C169.439 34.4879 169.076 34.7282 168.638 34.9006C168.204 35.0696 167.709 35.1541 167.152 35.1541Z" fill="#18191C"/>
<path d="M65.233 57V46.8182H68.7926C69.5019 46.8182 70.0869 46.9408 70.5476 47.1861C71.0083 47.428 71.3513 47.7545 71.5767 48.1655C71.8021 48.5732 71.9148 49.0256 71.9148 49.5227C71.9148 49.9602 71.8369 50.3215 71.6811 50.6065C71.5286 50.8916 71.3265 51.117 71.0746 51.2827C70.826 51.4484 70.5559 51.571 70.2642 51.6506V51.75C70.5758 51.7699 70.889 51.8793 71.2038 52.0781C71.5187 52.277 71.7822 52.562 71.9943 52.9332C72.2064 53.3045 72.3125 53.7585 72.3125 54.2955C72.3125 54.8059 72.1965 55.2649 71.9645 55.6726C71.7325 56.0803 71.3662 56.4034 70.8658 56.642C70.3653 56.8807 69.714 57 68.9119 57H65.233ZM66.4659 55.9062H68.9119C69.7173 55.9062 70.2891 55.7505 70.6271 55.4389C70.9685 55.1241 71.1392 54.7429 71.1392 54.2955C71.1392 53.9508 71.0514 53.6326 70.8757 53.3409C70.7 53.0459 70.4498 52.8106 70.125 52.6349C69.8002 52.456 69.4157 52.3665 68.9716 52.3665H66.4659V55.9062ZM66.4659 51.2926H68.7528C69.1241 51.2926 69.4588 51.2197 69.7571 51.0739C70.0587 50.928 70.2973 50.7225 70.473 50.4574C70.652 50.1922 70.7415 49.8807 70.7415 49.5227C70.7415 49.0753 70.5857 48.6958 70.2741 48.3842C69.9626 48.0694 69.4688 47.9119 68.7926 47.9119H66.4659V51.2926ZM74.1793 57V49.3636H75.3129V50.517H75.3924C75.5316 50.1392 75.7835 49.8326 76.1481 49.5973C76.5127 49.362 76.9237 49.2443 77.381 49.2443C77.4672 49.2443 77.5749 49.246 77.7042 49.2493C77.8335 49.2526 77.9312 49.2576 77.9975 49.2642V50.4574C77.9577 50.4474 77.8666 50.4325 77.7241 50.4126C77.5849 50.3894 77.4374 50.3778 77.2816 50.3778C76.9104 50.3778 76.579 50.4557 76.2873 50.6115C75.9989 50.764 75.7702 50.9761 75.6012 51.2479C75.4355 51.5163 75.3526 51.8229 75.3526 52.1676V57H74.1793ZM82.2582 57.1591C81.5688 57.1591 80.9639 56.995 80.4435 56.6669C79.9265 56.3388 79.5221 55.8797 79.2305 55.2898C78.9421 54.6998 78.7979 54.0104 78.7979 53.2216C78.7979 52.4261 78.9421 51.7318 79.2305 51.1385C79.5221 50.5452 79.9265 50.0845 80.4435 49.7564C80.9639 49.4283 81.5688 49.2642 82.2582 49.2642C82.9476 49.2642 83.5508 49.4283 84.0678 49.7564C84.5882 50.0845 84.9925 50.5452 85.2809 51.1385C85.5726 51.7318 85.7184 52.4261 85.7184 53.2216C85.7184 54.0104 85.5726 54.6998 85.2809 55.2898C84.9925 55.8797 84.5882 56.3388 84.0678 56.6669C83.5508 56.995 82.9476 57.1591 82.2582 57.1591ZM82.2582 56.1051C82.7818 56.1051 83.2127 55.9709 83.5508 55.7024C83.8888 55.4339 84.1391 55.081 84.3015 54.6435C84.4639 54.206 84.5451 53.732 84.5451 53.2216C84.5451 52.7112 84.4639 52.2356 84.3015 51.7947C84.1391 51.3539 83.8888 50.9976 83.5508 50.7259C83.2127 50.4541 82.7818 50.3182 82.2582 50.3182C81.7345 50.3182 81.3036 50.4541 80.9656 50.7259C80.6275 50.9976 80.3772 51.3539 80.2148 51.7947C80.0524 52.2356 79.9712 52.7112 79.9712 53.2216C79.9712 53.732 80.0524 54.206 80.2148 54.6435C80.3772 55.081 80.6275 55.4339 80.9656 55.7024C81.3036 55.9709 81.7345 56.1051 82.2582 56.1051ZM88.9798 57L86.6531 49.3636H87.886L89.5366 55.2102H89.6161L91.2468 49.3636H92.4996L94.1104 55.1903H94.19L95.8406 49.3636H97.0735L94.7468 57H93.5934L91.9229 51.1335H91.8036L90.1332 57H88.9798ZM104.034 51.0739L102.98 51.3722C102.913 51.1965 102.816 51.0258 102.686 50.8601C102.56 50.6911 102.388 50.5518 102.169 50.4425C101.951 50.3331 101.671 50.2784 101.329 50.2784C100.862 50.2784 100.472 50.3861 100.161 50.6016C99.8526 50.8137 99.6985 51.0838 99.6985 51.4119C99.6985 51.7036 99.8046 51.9339 100.017 52.103C100.229 52.272 100.56 52.4129 101.011 52.5256L102.145 52.804C102.827 52.9697 103.336 53.2232 103.671 53.5646C104.006 53.9027 104.173 54.3385 104.173 54.8722C104.173 55.3097 104.047 55.7008 103.795 56.0455C103.547 56.3902 103.199 56.6619 102.751 56.8608C102.304 57.0597 101.783 57.1591 101.19 57.1591C100.411 57.1591 99.7665 56.9901 99.256 56.652C98.7456 56.3139 98.4225 55.8201 98.2866 55.1705L99.4002 54.892C99.5063 55.303 99.7068 55.6113 100.002 55.8168C100.3 56.0223 100.69 56.125 101.17 56.125C101.717 56.125 102.151 56.009 102.473 55.777C102.797 55.5417 102.96 55.2599 102.96 54.9318C102.96 54.6667 102.867 54.4446 102.681 54.2656C102.496 54.0833 102.211 53.9474 101.826 53.858L100.554 53.5597C99.8543 53.3939 99.3406 53.1371 99.0124 52.7891C98.6876 52.4377 98.5252 51.9986 98.5252 51.4716C98.5252 51.0407 98.6462 50.6596 98.8881 50.3281C99.1334 49.9967 99.4665 49.7365 99.8874 49.5476C100.312 49.3587 100.792 49.2642 101.329 49.2642C102.085 49.2642 102.678 49.4299 103.109 49.7614C103.543 50.0928 103.851 50.5303 104.034 51.0739ZM109.141 57.1591C108.405 57.1591 107.77 56.9967 107.237 56.6719C106.706 56.3438 106.297 55.8864 106.009 55.2997C105.724 54.7098 105.581 54.0237 105.581 53.2415C105.581 52.4593 105.724 51.7699 106.009 51.1733C106.297 50.5734 106.698 50.1061 107.212 49.7713C107.729 49.4332 108.332 49.2642 109.021 49.2642C109.419 49.2642 109.812 49.3305 110.2 49.4631C110.588 49.5956 110.941 49.8111 111.259 50.1094C111.577 50.4044 111.83 50.7955 112.019 51.2827C112.208 51.7699 112.303 52.3698 112.303 53.0824V53.5795H106.416V52.5653H111.11C111.11 52.1345 111.023 51.75 110.851 51.4119C110.682 51.0739 110.44 50.8071 110.125 50.6115C109.814 50.416 109.446 50.3182 109.021 50.3182C108.554 50.3182 108.15 50.4342 107.808 50.6662C107.47 50.8949 107.21 51.1932 107.028 51.5611C106.846 51.929 106.754 52.3234 106.754 52.7443V53.4205C106.754 53.9972 106.854 54.486 107.053 54.8871C107.255 55.2848 107.535 55.5881 107.893 55.7969C108.251 56.0024 108.667 56.1051 109.141 56.1051C109.449 56.1051 109.727 56.062 109.976 55.9759C110.228 55.8864 110.445 55.7538 110.627 55.5781C110.81 55.3991 110.95 55.1771 111.05 54.9119L112.183 55.2301C112.064 55.6146 111.864 55.9527 111.582 56.2443C111.3 56.5327 110.952 56.758 110.538 56.9205C110.124 57.0795 109.658 57.1591 109.141 57.1591ZM121.426 49.3636V50.358H117.309V49.3636H121.426ZM118.542 57V48.3097C118.542 47.8722 118.645 47.5076 118.85 47.2159C119.056 46.9242 119.323 46.7055 119.651 46.5597C119.979 46.4138 120.325 46.3409 120.69 46.3409C120.978 46.3409 121.213 46.3641 121.396 46.4105C121.578 46.4569 121.714 46.5 121.803 46.5398L121.465 47.554C121.406 47.5341 121.323 47.5092 121.217 47.4794C121.114 47.4496 120.978 47.4347 120.809 47.4347C120.421 47.4347 120.141 47.5324 119.969 47.728C119.8 47.9235 119.715 48.2102 119.715 48.5881V57H118.542ZM123.07 57V49.3636H124.243V57H123.07ZM123.667 48.0909C123.438 48.0909 123.241 48.013 123.075 47.8572C122.913 47.7015 122.831 47.5142 122.831 47.2955C122.831 47.0767 122.913 46.8894 123.075 46.7337C123.241 46.5779 123.438 46.5 123.667 46.5C123.895 46.5 124.091 46.5779 124.253 46.7337C124.419 46.8894 124.502 47.0767 124.502 47.2955C124.502 47.5142 124.419 47.7015 124.253 47.8572C124.091 48.013 123.895 48.0909 123.667 48.0909ZM127.566 46.8182V57H126.392V46.8182H127.566ZM132.916 57.1591C132.18 57.1591 131.546 56.9967 131.012 56.6719C130.482 56.3438 130.072 55.8864 129.784 55.2997C129.499 54.7098 129.357 54.0237 129.357 53.2415C129.357 52.4593 129.499 51.7699 129.784 51.1733C130.072 50.5734 130.473 50.1061 130.987 49.7713C131.504 49.4332 132.107 49.2642 132.797 49.2642C133.195 49.2642 133.587 49.3305 133.975 49.4631C134.363 49.5956 134.716 49.8111 135.034 50.1094C135.352 50.4044 135.606 50.7955 135.795 51.2827C135.984 51.7699 136.078 52.3698 136.078 53.0824V53.5795H130.192V52.5653H134.885C134.885 52.1345 134.799 51.75 134.626 51.4119C134.457 51.0739 134.215 50.8071 133.901 50.6115C133.589 50.416 133.221 50.3182 132.797 50.3182C132.33 50.3182 131.925 50.4342 131.584 50.6662C131.246 50.8949 130.986 51.1932 130.803 51.5611C130.621 51.929 130.53 52.3234 130.53 52.7443V53.4205C130.53 53.9972 130.629 54.486 130.828 54.8871C131.03 55.2848 131.31 55.5881 131.668 55.7969C132.026 56.0024 132.442 56.1051 132.916 56.1051C133.224 56.1051 133.503 56.062 133.751 55.9759C134.003 55.8864 134.22 55.7538 134.403 55.5781C134.585 55.3991 134.726 55.1771 134.825 54.9119L135.959 55.2301C135.839 55.6146 135.639 55.9527 135.357 56.2443C135.076 56.5327 134.728 56.758 134.313 56.9205C133.899 57.0795 133.433 57.1591 132.916 57.1591ZM144.903 57.1591C144.213 57.1591 143.608 56.995 143.088 56.6669C142.571 56.3388 142.167 55.8797 141.875 55.2898C141.587 54.6998 141.442 54.0104 141.442 53.2216C141.442 52.4261 141.587 51.7318 141.875 51.1385C142.167 50.5452 142.571 50.0845 143.088 49.7564C143.608 49.4283 144.213 49.2642 144.903 49.2642C145.592 49.2642 146.195 49.4283 146.712 49.7564C147.233 50.0845 147.637 50.5452 147.925 51.1385C148.217 51.7318 148.363 52.4261 148.363 53.2216C148.363 54.0104 148.217 54.6998 147.925 55.2898C147.637 55.8797 147.233 56.3388 146.712 56.6669C146.195 56.995 145.592 57.1591 144.903 57.1591ZM144.903 56.1051C145.426 56.1051 145.857 55.9709 146.195 55.7024C146.533 55.4339 146.784 55.081 146.946 54.6435C147.108 54.206 147.19 53.732 147.19 53.2216C147.19 52.7112 147.108 52.2356 146.946 51.7947C146.784 51.3539 146.533 50.9976 146.195 50.7259C145.857 50.4541 145.426 50.3182 144.903 50.3182C144.379 50.3182 143.948 50.4541 143.61 50.7259C143.272 50.9976 143.022 51.3539 142.859 51.7947C142.697 52.2356 142.616 52.7112 142.616 53.2216C142.616 53.732 142.697 54.206 142.859 54.6435C143.022 55.081 143.272 55.4339 143.61 55.7024C143.948 55.9709 144.379 56.1051 144.903 56.1051ZM150.154 57V49.3636H151.287V50.517H151.367C151.506 50.1392 151.758 49.8326 152.123 49.5973C152.487 49.362 152.898 49.2443 153.356 49.2443C153.442 49.2443 153.55 49.246 153.679 49.2493C153.808 49.2526 153.906 49.2576 153.972 49.2642V50.4574C153.932 50.4474 153.841 50.4325 153.699 50.4126C153.559 50.3894 153.412 50.3778 153.256 50.3778C152.885 50.3778 152.554 50.4557 152.262 50.6115C151.974 50.764 151.745 50.9761 151.576 51.2479C151.41 51.5163 151.327 51.8229 151.327 52.1676V57H150.154ZM162.184 57.1591C161.548 57.1591 160.986 56.9983 160.499 56.6768C160.011 56.352 159.63 55.8946 159.355 55.3047C159.08 54.7114 158.942 54.0104 158.942 53.2017C158.942 52.3996 159.08 51.7036 159.355 51.1136C159.63 50.5237 160.013 50.0679 160.504 49.7464C160.994 49.425 161.561 49.2642 162.204 49.2642C162.701 49.2642 163.094 49.3471 163.382 49.5128C163.674 49.6752 163.896 49.8608 164.048 50.0696C164.204 50.2751 164.325 50.4441 164.411 50.5767H164.511V46.8182H165.684V57H164.55V55.8267H164.411C164.325 55.9659 164.202 56.1416 164.043 56.3537C163.884 56.5625 163.657 56.7498 163.362 56.9155C163.067 57.0779 162.674 57.1591 162.184 57.1591ZM162.343 56.1051C162.814 56.1051 163.211 55.9825 163.536 55.7372C163.861 55.4886 164.108 55.1456 164.277 54.7081C164.446 54.2673 164.531 53.7585 164.531 53.1818C164.531 52.6117 164.448 52.1129 164.282 51.6854C164.116 51.2545 163.871 50.9197 163.546 50.6811C163.221 50.4392 162.82 50.3182 162.343 50.3182C161.846 50.3182 161.432 50.4458 161.1 50.701C160.772 50.9529 160.525 51.2959 160.359 51.7301C160.197 52.161 160.116 52.6449 160.116 53.1818C160.116 53.7254 160.199 54.2192 160.364 54.6634C160.533 55.1042 160.782 55.4555 161.11 55.7173C161.442 55.9759 161.853 56.1051 162.343 56.1051ZM167.996 57V49.3636H169.129V50.517H169.209C169.348 50.1392 169.6 49.8326 169.964 49.5973C170.329 49.362 170.74 49.2443 171.197 49.2443C171.284 49.2443 171.391 49.246 171.521 49.2493C171.65 49.2526 171.748 49.2576 171.814 49.2642V50.4574C171.774 50.4474 171.683 50.4325 171.54 50.4126C171.401 50.3894 171.254 50.3778 171.098 50.3778C170.727 50.3778 170.395 50.4557 170.104 50.6115C169.815 50.764 169.587 50.9761 169.418 51.2479C169.252 51.5163 169.169 51.8229 169.169 52.1676V57H167.996ZM176.075 57.1591C175.385 57.1591 174.78 56.995 174.26 56.6669C173.743 56.3388 173.339 55.8797 173.047 55.2898C172.759 54.6998 172.614 54.0104 172.614 53.2216C172.614 52.4261 172.759 51.7318 173.047 51.1385C173.339 50.5452 173.743 50.0845 174.26 49.7564C174.78 49.4283 175.385 49.2642 176.075 49.2642C176.764 49.2642 177.367 49.4283 177.884 49.7564C178.405 50.0845 178.809 50.5452 179.097 51.1385C179.389 51.7318 179.535 52.4261 179.535 53.2216C179.535 54.0104 179.389 54.6998 179.097 55.2898C178.809 55.8797 178.405 56.3388 177.884 56.6669C177.367 56.995 176.764 57.1591 176.075 57.1591ZM176.075 56.1051C176.598 56.1051 177.029 55.9709 177.367 55.7024C177.705 55.4339 177.955 55.081 178.118 54.6435C178.28 54.206 178.362 53.732 178.362 53.2216C178.362 52.7112 178.28 52.2356 178.118 51.7947C177.955 51.3539 177.705 50.9976 177.367 50.7259C177.029 50.4541 176.598 50.3182 176.075 50.3182C175.551 50.3182 175.12 50.4541 174.782 50.7259C174.444 50.9976 174.194 51.3539 174.031 51.7947C173.869 52.2356 173.788 52.7112 173.788 53.2216C173.788 53.732 173.869 54.206 174.031 54.6435C174.194 55.081 174.444 55.4339 174.782 55.7024C175.12 55.9709 175.551 56.1051 176.075 56.1051ZM181.326 59.8636V49.3636H182.459V50.5767H182.599C182.685 50.4441 182.804 50.2751 182.956 50.0696C183.112 49.8608 183.334 49.6752 183.623 49.5128C183.914 49.3471 184.309 49.2642 184.806 49.2642C185.449 49.2642 186.016 49.425 186.506 49.7464C186.997 50.0679 187.38 50.5237 187.655 51.1136C187.93 51.7036 188.067 52.3996 188.067 53.2017C188.067 54.0104 187.93 54.7114 187.655 55.3047C187.38 55.8946 186.998 56.352 186.511 56.6768C186.024 56.9983 185.462 57.1591 184.826 57.1591C184.335 57.1591 183.943 57.0779 183.648 56.9155C183.353 56.7498 183.126 56.5625 182.966 56.3537C182.807 56.1416 182.685 55.9659 182.599 55.8267H182.499V59.8636H181.326ZM182.479 53.1818C182.479 53.7585 182.564 54.2673 182.733 54.7081C182.902 55.1456 183.149 55.4886 183.474 55.7372C183.798 55.9825 184.196 56.1051 184.667 56.1051C185.157 56.1051 185.567 55.9759 185.895 55.7173C186.226 55.4555 186.475 55.1042 186.64 54.6634C186.809 54.2192 186.894 53.7254 186.894 53.1818C186.894 52.6449 186.811 52.161 186.645 51.7301C186.483 51.2959 186.236 50.9529 185.905 50.701C185.577 50.4458 185.164 50.3182 184.667 50.3182C184.189 50.3182 183.788 50.4392 183.464 50.6811C183.139 50.9197 182.894 51.2545 182.728 51.6854C182.562 52.1129 182.479 52.6117 182.479 53.1818ZM194.968 52.4062V57H193.795V46.8182H194.968V50.5568H195.067C195.246 50.1624 195.515 49.8492 195.873 49.6172C196.234 49.3819 196.715 49.2642 197.314 49.2642C197.835 49.2642 198.291 49.3686 198.682 49.5774C199.073 49.7829 199.376 50.0994 199.591 50.527C199.81 50.9512 199.92 51.4915 199.92 52.1477V57H198.746V52.2273C198.746 51.6207 198.589 51.1518 198.274 50.8203C197.962 50.4856 197.53 50.3182 196.976 50.3182C196.592 50.3182 196.247 50.3994 195.942 50.5618C195.641 50.7242 195.402 50.9612 195.226 51.2727C195.054 51.5843 194.968 51.9621 194.968 52.4062ZM205.268 57.1591C204.532 57.1591 203.897 56.9967 203.364 56.6719C202.833 56.3438 202.424 55.8864 202.136 55.2997C201.851 54.7098 201.708 54.0237 201.708 53.2415C201.708 52.4593 201.851 51.7699 202.136 51.1733C202.424 50.5734 202.825 50.1061 203.339 49.7713C203.856 49.4332 204.459 49.2642 205.148 49.2642C205.546 49.2642 205.939 49.3305 206.327 49.4631C206.714 49.5956 207.067 49.8111 207.386 50.1094C207.704 50.4044 207.957 50.7955 208.146 51.2827C208.335 51.7699 208.43 52.3698 208.43 53.0824V53.5795H202.543V52.5653H207.237C207.237 52.1345 207.15 51.75 206.978 51.4119C206.809 51.0739 206.567 50.8071 206.252 50.6115C205.941 50.416 205.573 50.3182 205.148 50.3182C204.681 50.3182 204.277 50.4342 203.935 50.6662C203.597 50.8949 203.337 51.1932 203.155 51.5611C202.973 51.929 202.881 52.3234 202.881 52.7443V53.4205C202.881 53.9972 202.981 54.486 203.18 54.8871C203.382 55.2848 203.662 55.5881 204.02 55.7969C204.378 56.0024 204.794 56.1051 205.268 56.1051C205.576 56.1051 205.854 56.062 206.103 55.9759C206.355 55.8864 206.572 55.7538 206.754 55.5781C206.937 55.3991 207.077 55.1771 207.177 54.9119L208.31 55.2301C208.191 55.6146 207.991 55.9527 207.709 56.2443C207.427 56.5327 207.079 56.758 206.665 56.9205C206.25 57.0795 205.785 57.1591 205.268 57.1591ZM210.214 57V49.3636H211.348V50.517H211.428C211.567 50.1392 211.819 49.8326 212.183 49.5973C212.548 49.362 212.959 49.2443 213.416 49.2443C213.502 49.2443 213.61 49.246 213.739 49.2493C213.869 49.2526 213.966 49.2576 214.033 49.2642V50.4574C213.993 50.4474 213.902 50.4325 213.759 50.4126C213.62 50.3894 213.473 50.3778 213.317 50.3778C212.946 50.3778 212.614 50.4557 212.322 50.6115C212.034 50.764 211.805 50.9761 211.636 51.2479C211.471 51.5163 211.388 51.8229 211.388 52.1676V57H210.214ZM218.393 57.1591C217.657 57.1591 217.022 56.9967 216.489 56.6719C215.958 56.3438 215.549 55.8864 215.261 55.2997C214.976 54.7098 214.833 54.0237 214.833 53.2415C214.833 52.4593 214.976 51.7699 215.261 51.1733C215.549 50.5734 215.95 50.1061 216.464 49.7713C216.981 49.4332 217.584 49.2642 218.273 49.2642C218.671 49.2642 219.064 49.3305 219.452 49.4631C219.839 49.5956 220.192 49.8111 220.511 50.1094C220.829 50.4044 221.082 50.7955 221.271 51.2827C221.46 51.7699 221.555 52.3698 221.555 53.0824V53.5795H215.668V52.5653H220.362C220.362 52.1345 220.275 51.75 220.103 51.4119C219.934 51.0739 219.692 50.8071 219.377 50.6115C219.066 50.416 218.698 50.3182 218.273 50.3182C217.806 50.3182 217.402 50.4342 217.06 50.6662C216.722 50.8949 216.462 51.1932 216.28 51.5611C216.098 51.929 216.006 52.3234 216.006 52.7443V53.4205C216.006 53.9972 216.106 54.486 216.305 54.8871C216.507 55.2848 216.787 55.5881 217.145 55.7969C217.503 56.0024 217.919 56.1051 218.393 56.1051C218.701 56.1051 218.979 56.062 219.228 55.9759C219.48 55.8864 219.697 55.7538 219.879 55.5781C220.062 55.3991 220.202 55.1771 220.302 54.9119L221.435 55.2301C221.316 55.6146 221.116 55.9527 220.834 56.2443C220.552 56.5327 220.204 56.758 219.79 56.9205C219.375 57.0795 218.91 57.1591 218.393 57.1591ZM224.195 57.0795C223.949 57.0795 223.739 56.9917 223.563 56.8161C223.388 56.6404 223.3 56.4299 223.3 56.1847C223.3 55.9394 223.388 55.7289 223.563 55.5533C223.739 55.3776 223.949 55.2898 224.195 55.2898C224.44 55.2898 224.65 55.3776 224.826 55.5533C225.002 55.7289 225.089 55.9394 225.089 56.1847C225.089 56.3471 225.048 56.4962 224.965 56.6321C224.886 56.768 224.778 56.8774 224.642 56.9602C224.509 57.0398 224.36 57.0795 224.195 57.0795ZM234.235 57.1591C233.545 57.1591 232.94 56.995 232.42 56.6669C231.903 56.3388 231.499 55.8797 231.207 55.2898C230.919 54.6998 230.775 54.0104 230.775 53.2216C230.775 52.4261 230.919 51.7318 231.207 51.1385C231.499 50.5452 231.903 50.0845 232.42 49.7564C232.94 49.4283 233.545 49.2642 234.235 49.2642C234.924 49.2642 235.527 49.4283 236.044 49.7564C236.565 50.0845 236.969 50.5452 237.257 51.1385C237.549 51.7318 237.695 52.4261 237.695 53.2216C237.695 54.0104 237.549 54.6998 237.257 55.2898C236.969 55.8797 236.565 56.3388 236.044 56.6669C235.527 56.995 234.924 57.1591 234.235 57.1591ZM234.235 56.1051C234.758 56.1051 235.189 55.9709 235.527 55.7024C235.865 55.4339 236.116 55.081 236.278 54.6435C236.44 54.206 236.522 53.732 236.522 53.2216C236.522 52.7112 236.44 52.2356 236.278 51.7947C236.116 51.3539 235.865 50.9976 235.527 50.7259C235.189 50.4541 234.758 50.3182 234.235 50.3182C233.711 50.3182 233.28 50.4541 232.942 50.7259C232.604 50.9976 232.354 51.3539 232.191 51.7947C232.029 52.2356 231.948 52.7112 231.948 53.2216C231.948 53.732 232.029 54.206 232.191 54.6435C232.354 55.081 232.604 55.4339 232.942 55.7024C233.28 55.9709 233.711 56.1051 234.235 56.1051ZM240.659 52.4062V57H239.486V49.3636H240.619V50.5568H240.719C240.898 50.169 241.17 49.8575 241.534 49.6222C241.899 49.3835 242.369 49.2642 242.946 49.2642C243.463 49.2642 243.916 49.3703 244.303 49.5824C244.691 49.7912 244.993 50.1094 245.208 50.5369C245.424 50.9612 245.531 51.4981 245.531 52.1477V57H244.358V52.2273C244.358 51.6274 244.202 51.16 243.891 50.8253C243.579 50.4872 243.152 50.3182 242.608 50.3182C242.234 50.3182 241.899 50.3994 241.604 50.5618C241.312 50.7242 241.082 50.9612 240.913 51.2727C240.744 51.5843 240.659 51.9621 240.659 52.4062ZM248.849 46.8182V57H247.675V46.8182H248.849ZM251.753 59.8636C251.555 59.8636 251.377 59.8471 251.221 59.8139C251.066 59.7841 250.958 59.7543 250.898 59.7244L251.197 58.6903C251.482 58.7633 251.733 58.7898 251.952 58.7699C252.171 58.75 252.365 58.6522 252.534 58.4766C252.706 58.3042 252.864 58.0241 253.006 57.6364L253.225 57.0398L250.401 49.3636H251.674L253.782 55.4489H253.861L255.969 49.3636H257.242L254.001 58.1136C253.855 58.508 253.674 58.8345 253.459 59.093C253.243 59.3549 252.993 59.5488 252.708 59.6747C252.426 59.8007 252.108 59.8636 251.753 59.8636ZM262.728 59.8636V49.3636H263.862V50.5767H264.001C264.087 50.4441 264.206 50.2751 264.359 50.0696C264.515 49.8608 264.737 49.6752 265.025 49.5128C265.317 49.3471 265.711 49.2642 266.208 49.2642C266.851 49.2642 267.418 49.425 267.909 49.7464C268.399 50.0679 268.782 50.5237 269.057 51.1136C269.332 51.7036 269.47 52.3996 269.47 53.2017C269.47 54.0104 269.332 54.7114 269.057 55.3047C268.782 55.8946 268.401 56.352 267.914 56.6768C267.426 56.9983 266.865 57.1591 266.228 57.1591C265.738 57.1591 265.345 57.0779 265.05 56.9155C264.755 56.7498 264.528 56.5625 264.369 56.3537C264.21 56.1416 264.087 55.9659 264.001 55.8267H263.901V59.8636H262.728ZM263.882 53.1818C263.882 53.7585 263.966 54.2673 264.135 54.7081C264.304 55.1456 264.551 55.4886 264.876 55.7372C265.201 55.9825 265.598 56.1051 266.069 56.1051C266.56 56.1051 266.969 55.9759 267.297 55.7173C267.628 55.4555 267.877 55.1042 268.043 54.6634C268.212 54.2192 268.296 53.7254 268.296 53.1818C268.296 52.6449 268.213 52.161 268.048 51.7301C267.885 51.2959 267.638 50.9529 267.307 50.701C266.979 50.4458 266.566 50.3182 266.069 50.3182C265.592 50.3182 265.191 50.4392 264.866 50.6811C264.541 50.9197 264.296 51.2545 264.13 51.6854C263.964 52.1129 263.882 52.6117 263.882 53.1818ZM274.143 57.1591C273.507 57.1591 272.945 56.9983 272.458 56.6768C271.97 56.352 271.589 55.8946 271.314 55.3047C271.039 54.7114 270.901 54.0104 270.901 53.2017C270.901 52.3996 271.039 51.7036 271.314 51.1136C271.589 50.5237 271.972 50.0679 272.463 49.7464C272.953 49.425 273.52 49.2642 274.163 49.2642C274.66 49.2642 275.053 49.3471 275.341 49.5128C275.633 49.6752 275.855 49.8608 276.007 50.0696C276.163 50.2751 276.284 50.4441 276.37 50.5767H276.47V46.8182H277.643V57H276.509V55.8267H276.37C276.284 55.9659 276.161 56.1416 276.002 56.3537C275.843 56.5625 275.616 56.7498 275.321 56.9155C275.026 57.0779 274.633 57.1591 274.143 57.1591ZM274.302 56.1051C274.773 56.1051 275.17 55.9825 275.495 55.7372C275.82 55.4886 276.067 55.1456 276.236 54.7081C276.405 54.2673 276.49 53.7585 276.49 53.1818C276.49 52.6117 276.407 52.1129 276.241 51.6854C276.075 51.2545 275.83 50.9197 275.505 50.6811C275.18 50.4392 274.779 50.3182 274.302 50.3182C273.805 50.3182 273.391 50.4458 273.059 50.701C272.731 50.9529 272.484 51.2959 272.318 51.7301C272.156 52.161 272.075 52.6449 272.075 53.1818C272.075 53.7254 272.158 54.2192 272.323 54.6634C272.492 55.1042 272.741 55.4555 273.069 55.7173C273.401 55.9759 273.811 56.1051 274.302 56.1051ZM283.355 49.3636V50.358H279.239V49.3636H283.355ZM280.472 57V48.3097C280.472 47.8722 280.575 47.5076 280.78 47.2159C280.985 46.9242 281.252 46.7055 281.58 46.5597C281.909 46.4138 282.255 46.3409 282.619 46.3409C282.908 46.3409 283.143 46.3641 283.325 46.4105C283.508 46.4569 283.644 46.5 283.733 46.5398L283.395 47.554C283.335 47.5341 283.253 47.5092 283.146 47.4794C283.044 47.4496 282.908 47.4347 282.739 47.4347C282.351 47.4347 282.071 47.5324 281.899 47.728C281.73 47.9235 281.645 48.2102 281.645 48.5881V57H280.472Z" fill="#5E6670"/>
</svg>
