<svg width="240" height="240" viewBox="0 0 240 240" fill="none" xmlns="http://www.w3.org/2000/svg">
<rect width="240" height="240" rx="6" fill="#F1F2F4" fill-opacity="0.4"/>
<rect x="1" y="1" width="238" height="238" rx="5" stroke="#C8CCD1" stroke-opacity="0.7" stroke-width="2" stroke-linejoin="round" stroke-dasharray="16 8"/>
<path d="M128 89L120 81L112 89" stroke="#ADB2BA" stroke-width="3" stroke-linecap="round" stroke-linejoin="round"/>
<path d="M120 81V99" stroke="#ADB2BA" stroke-width="3" stroke-linecap="round" stroke-linejoin="round"/>
<path d="M136.783 93.7809C138.734 92.7175 140.275 91.0347 141.163 88.9982C142.051 86.9617 142.235 84.6874 141.687 82.5343C141.139 80.3812 139.89 78.472 138.136 77.1078C136.383 75.7437 134.225 75.0024 132.003 75.0009H129.483C128.877 72.6594 127.749 70.4856 126.183 68.6429C124.616 66.8002 122.653 65.3366 120.439 64.3622C118.226 63.3877 115.82 62.9277 113.403 63.0167C110.986 63.1058 108.621 63.7415 106.485 64.8763C104.349 66.011 102.499 67.6152 101.072 69.5681C99.6455 71.5211 98.6802 73.772 98.2488 76.1517C97.8174 78.5314 97.9311 80.978 98.5813 83.3075C99.2315 85.6369 100.401 87.7887 102.003 89.6009" stroke="#ADB2BA" stroke-width="3" stroke-linecap="round" stroke-linejoin="round"/>
<path d="M128 89L120 81L112 89" stroke="#ADB2BA" stroke-width="3" stroke-linecap="round" stroke-linejoin="round"/>
<path d="M32.1284 136V125.818H35.8571C36.5796 125.818 37.1779 125.937 37.6518 126.176C38.1258 126.411 38.4804 126.731 38.7157 127.136C38.9511 127.537 39.0687 127.989 39.0687 128.493C39.0687 128.917 38.9908 129.275 38.835 129.567C38.6793 129.855 38.4705 130.087 38.2086 130.263C37.9501 130.435 37.6651 130.561 37.3535 130.641V130.74C37.6916 130.757 38.0214 130.866 38.3429 131.068C38.6677 131.267 38.9361 131.55 39.1483 131.918C39.3604 132.286 39.4664 132.734 39.4664 133.261C39.4664 133.781 39.3438 134.248 39.0985 134.663C38.8566 135.074 38.4821 135.4 37.975 135.642C37.4679 135.881 36.8199 136 36.0311 136H32.1284ZM33.6646 134.683H35.8819C36.6177 134.683 37.1447 134.54 37.4629 134.255C37.7811 133.97 37.9402 133.614 37.9402 133.186C37.9402 132.865 37.859 132.57 37.6966 132.301C37.5342 132.033 37.3021 131.819 37.0005 131.66C36.7022 131.501 36.3476 131.421 35.9366 131.421H33.6646V134.683ZM33.6646 130.223H35.7228C36.0675 130.223 36.3774 130.157 36.6525 130.024C36.9309 129.892 37.1513 129.706 37.3137 129.467C37.4795 129.225 37.5623 128.94 37.5623 128.612C37.5623 128.191 37.4148 127.838 37.1199 127.553C36.8249 127.268 36.3725 127.126 35.7626 127.126H33.6646V130.223ZM41.1692 136V128.364H42.606V129.577H42.6855C42.8248 129.166 43.07 128.843 43.4213 128.607C43.776 128.369 44.177 128.249 44.6245 128.249C44.7173 128.249 44.8266 128.253 44.9526 128.259C45.0819 128.266 45.1829 128.274 45.2559 128.284V129.706C45.1962 129.689 45.0901 129.671 44.9377 129.651C44.7852 129.628 44.6328 129.616 44.4803 129.616C44.129 129.616 43.8158 129.691 43.5407 129.84C43.2689 129.986 43.0534 130.19 42.8944 130.452C42.7353 130.71 42.6557 131.005 42.6557 131.337V136H41.1692ZM49.4854 136.154C48.7695 136.154 48.1448 135.99 47.6112 135.662C47.0775 135.334 46.6632 134.875 46.3683 134.285C46.0733 133.695 45.9258 133.005 45.9258 132.217C45.9258 131.424 46.0733 130.732 46.3683 130.138C46.6632 129.545 47.0775 129.085 47.6112 128.756C48.1448 128.428 48.7695 128.264 49.4854 128.264C50.2013 128.264 50.8261 128.428 51.3597 128.756C51.8933 129.085 52.3076 129.545 52.6026 130.138C52.8976 130.732 53.0451 131.424 53.0451 132.217C53.0451 133.005 52.8976 133.695 52.6026 134.285C52.3076 134.875 51.8933 135.334 51.3597 135.662C50.8261 135.99 50.2013 136.154 49.4854 136.154ZM49.4904 134.906C49.9544 134.906 50.3389 134.784 50.6438 134.538C50.9487 134.293 51.1741 133.967 51.32 133.559C51.4691 133.151 51.5437 132.702 51.5437 132.212C51.5437 131.724 51.4691 131.277 51.32 130.869C51.1741 130.458 50.9487 130.129 50.6438 129.88C50.3389 129.631 49.9544 129.507 49.4904 129.507C49.0231 129.507 48.6353 129.631 48.3271 129.88C48.0221 130.129 47.7951 130.458 47.646 130.869C47.5001 131.277 47.4272 131.724 47.4272 132.212C47.4272 132.702 47.5001 133.151 47.646 133.559C47.7951 133.967 48.0221 134.293 48.3271 134.538C48.6353 134.784 49.0231 134.906 49.4904 134.906ZM56.1275 136L53.8803 128.364H55.4165L56.913 133.972H56.9876L58.489 128.364H60.0252L61.5167 133.947H61.5913L63.0778 128.364H64.614L62.3718 136H60.8555L59.3043 130.487H59.19L57.6388 136H56.1275ZM71.747 130.228L70.3997 130.467C70.3433 130.294 70.2538 130.13 70.1312 129.974C70.0119 129.819 69.8495 129.691 69.644 129.592C69.4385 129.492 69.1816 129.442 68.8734 129.442C68.4525 129.442 68.1011 129.537 67.8194 129.726C67.5377 129.911 67.3968 130.152 67.3968 130.447C67.3968 130.702 67.4913 130.907 67.6802 131.063C67.8691 131.219 68.1741 131.347 68.595 131.446L69.8081 131.724C70.5107 131.887 71.0344 132.137 71.3791 132.475C71.7238 132.813 71.8961 133.252 71.8961 133.793C71.8961 134.25 71.7636 134.658 71.4984 135.016C71.2366 135.37 70.8703 135.649 70.3997 135.851C69.9324 136.053 69.3904 136.154 68.774 136.154C67.9189 136.154 67.2212 135.972 66.6809 135.607C66.1407 135.239 65.8092 134.717 65.6866 134.041L67.1234 133.822C67.2129 134.197 67.3968 134.48 67.6752 134.673C67.9537 134.862 68.3166 134.956 68.764 134.956C69.2512 134.956 69.6407 134.855 69.9324 134.653C70.224 134.447 70.3699 134.197 70.3699 133.902C70.3699 133.663 70.2804 133.463 70.1014 133.3C69.9257 133.138 69.6556 133.015 69.291 132.933L67.9984 132.649C67.2858 132.487 66.7588 132.228 66.4174 131.874C66.0794 131.519 65.9103 131.07 65.9103 130.526C65.9103 130.076 66.0363 129.681 66.2882 129.343C66.5401 129.005 66.8881 128.741 67.3322 128.553C67.7763 128.36 68.2851 128.264 68.8585 128.264C69.6838 128.264 70.3334 128.443 70.8074 128.801C71.2813 129.156 71.5945 129.631 71.747 130.228ZM76.8217 136.154C76.0694 136.154 75.4214 135.993 74.8778 135.672C74.3376 135.347 73.92 134.891 73.625 134.305C73.3333 133.715 73.1875 133.024 73.1875 132.232C73.1875 131.449 73.3333 130.76 73.625 130.163C73.92 129.567 74.331 129.101 74.858 128.766C75.3883 128.432 76.008 128.264 76.7173 128.264C77.1482 128.264 77.5658 128.335 77.9702 128.478C78.3745 128.621 78.7375 128.844 79.0589 129.149C79.3804 129.454 79.634 129.85 79.8196 130.337C80.0052 130.821 80.098 131.41 80.098 132.102V132.629H74.0277V131.516H78.6413C78.6413 131.125 78.5618 130.778 78.4027 130.477C78.2436 130.172 78.0199 129.931 77.7315 129.756C77.4465 129.58 77.1117 129.492 76.7273 129.492C76.3097 129.492 75.9451 129.595 75.6335 129.8C75.3253 130.003 75.0866 130.268 74.9176 130.596C74.7519 130.921 74.669 131.274 74.669 131.655V132.525C74.669 133.035 74.7585 133.469 74.9375 133.827C75.1198 134.185 75.3733 134.459 75.6982 134.648C76.023 134.833 76.4025 134.926 76.8366 134.926C77.1184 134.926 77.3752 134.886 77.6072 134.807C77.8393 134.724 78.0398 134.601 78.2088 134.439C78.3778 134.277 78.5071 134.076 78.5966 133.837L80.0036 134.091C79.8909 134.505 79.6887 134.868 79.397 135.18C79.1087 135.488 78.7457 135.728 78.3082 135.901C77.8741 136.07 77.3786 136.154 76.8217 136.154ZM85.4524 138.864V128.364H86.9041V129.602H87.0284C87.1146 129.442 87.2389 129.259 87.4013 129.05C87.5637 128.841 87.7891 128.659 88.0774 128.503C88.3658 128.344 88.7469 128.264 89.2209 128.264C89.8374 128.264 90.3875 128.42 90.8714 128.732C91.3554 129.043 91.7348 129.492 92.0099 130.079C92.2884 130.665 92.4276 131.371 92.4276 132.197C92.4276 133.022 92.29 133.73 92.0149 134.32C91.7398 134.906 91.362 135.359 90.8814 135.677C90.4008 135.992 89.8523 136.149 89.2358 136.149C88.7718 136.149 88.3923 136.071 88.0973 135.915C87.8056 135.76 87.5769 135.577 87.4112 135.369C87.2455 135.16 87.1179 134.974 87.0284 134.812H86.9389V138.864H85.4524ZM86.9091 132.182C86.9091 132.719 86.987 133.189 87.1428 133.594C87.2985 133.998 87.5239 134.315 87.8189 134.543C88.1139 134.769 88.4751 134.881 88.9027 134.881C89.3468 134.881 89.718 134.764 90.0163 134.528C90.3146 134.29 90.54 133.967 90.6925 133.559C90.8482 133.151 90.9261 132.692 90.9261 132.182C90.9261 131.678 90.8499 131.226 90.6974 130.825C90.5483 130.424 90.3229 130.107 90.0213 129.875C89.723 129.643 89.3501 129.527 88.9027 129.527C88.4718 129.527 88.1072 129.638 87.8089 129.86C87.514 130.082 87.2902 130.392 87.1378 130.79C86.9853 131.187 86.9091 131.652 86.9091 132.182ZM95.5795 131.466V136H94.093V125.818H95.5597V129.607H95.6541C95.8331 129.196 96.1065 128.869 96.4744 128.627C96.8423 128.385 97.3229 128.264 97.9162 128.264C98.4399 128.264 98.8973 128.372 99.2884 128.587C99.6828 128.803 99.9877 129.124 100.203 129.552C100.422 129.976 100.531 130.506 100.531 131.143V136H99.0447V131.322C99.0447 130.762 98.9006 130.327 98.6122 130.019C98.3239 129.708 97.9228 129.552 97.4091 129.552C97.0578 129.552 96.7429 129.626 96.4645 129.776C96.1894 129.925 95.9723 130.143 95.8132 130.432C95.6574 130.717 95.5795 131.062 95.5795 131.466ZM105.732 136.154C105.016 136.154 104.391 135.99 103.857 135.662C103.324 135.334 102.909 134.875 102.614 134.285C102.319 133.695 102.172 133.005 102.172 132.217C102.172 131.424 102.319 130.732 102.614 130.138C102.909 129.545 103.324 129.085 103.857 128.756C104.391 128.428 105.016 128.264 105.732 128.264C106.447 128.264 107.072 128.428 107.606 128.756C108.139 129.085 108.554 129.545 108.849 130.138C109.144 130.732 109.291 131.424 109.291 132.217C109.291 133.005 109.144 133.695 108.849 134.285C108.554 134.875 108.139 135.334 107.606 135.662C107.072 135.99 106.447 136.154 105.732 136.154ZM105.737 134.906C106.201 134.906 106.585 134.784 106.89 134.538C107.195 134.293 107.42 133.967 107.566 133.559C107.715 133.151 107.79 132.702 107.79 132.212C107.79 131.724 107.715 131.277 107.566 130.869C107.42 130.458 107.195 130.129 106.89 129.88C106.585 129.631 106.201 129.507 105.737 129.507C105.269 129.507 104.881 129.631 104.573 129.88C104.268 130.129 104.041 130.458 103.892 130.869C103.746 131.277 103.673 131.724 103.673 132.212C103.673 132.702 103.746 133.151 103.892 133.559C104.041 133.967 104.268 134.293 104.573 134.538C104.881 134.784 105.269 134.906 105.737 134.906ZM114.515 128.364V129.557H110.344V128.364H114.515ZM111.463 126.534H112.949V133.758C112.949 134.046 112.992 134.263 113.078 134.409C113.164 134.552 113.276 134.649 113.411 134.702C113.551 134.752 113.701 134.777 113.864 134.777C113.983 134.777 114.088 134.769 114.177 134.752C114.267 134.736 114.336 134.722 114.386 134.712L114.654 135.94C114.568 135.973 114.445 136.007 114.286 136.04C114.127 136.076 113.928 136.096 113.69 136.099C113.299 136.106 112.934 136.036 112.596 135.891C112.258 135.745 111.985 135.519 111.776 135.214C111.567 134.91 111.463 134.527 111.463 134.066V126.534ZM119.294 136.154C118.578 136.154 117.953 135.99 117.42 135.662C116.886 135.334 116.472 134.875 116.177 134.285C115.882 133.695 115.734 133.005 115.734 132.217C115.734 131.424 115.882 130.732 116.177 130.138C116.472 129.545 116.886 129.085 117.42 128.756C117.953 128.428 118.578 128.264 119.294 128.264C120.01 128.264 120.635 128.428 121.168 128.756C121.702 129.085 122.116 129.545 122.411 130.138C122.706 130.732 122.854 131.424 122.854 132.217C122.854 133.005 122.706 133.695 122.411 134.285C122.116 134.875 121.702 135.334 121.168 135.662C120.635 135.99 120.01 136.154 119.294 136.154ZM119.299 134.906C119.763 134.906 120.147 134.784 120.452 134.538C120.757 134.293 120.983 133.967 121.129 133.559C121.278 133.151 121.352 132.702 121.352 132.212C121.352 131.724 121.278 131.277 121.129 130.869C120.983 130.458 120.757 130.129 120.452 129.88C120.147 129.631 119.763 129.507 119.299 129.507C118.832 129.507 118.444 129.631 118.136 129.88C117.831 130.129 117.604 130.458 117.455 130.869C117.309 131.277 117.236 131.724 117.236 132.212C117.236 132.702 117.309 133.151 117.455 133.559C117.604 133.967 117.831 134.293 118.136 134.538C118.444 134.784 118.832 134.906 119.299 134.906Z" fill="#18191C"/>
<path d="M131.627 136.159C130.938 136.159 130.333 135.995 129.813 135.667C129.296 135.339 128.891 134.88 128.6 134.29C128.311 133.7 128.167 133.01 128.167 132.222C128.167 131.426 128.311 130.732 128.6 130.138C128.891 129.545 129.296 129.085 129.813 128.756C130.333 128.428 130.938 128.264 131.627 128.264C132.317 128.264 132.92 128.428 133.437 128.756C133.957 129.085 134.362 129.545 134.65 130.138C134.942 130.732 135.088 131.426 135.088 132.222C135.088 133.01 134.942 133.7 134.65 134.29C134.362 134.88 133.957 135.339 133.437 135.667C132.92 135.995 132.317 136.159 131.627 136.159ZM131.627 135.105C132.151 135.105 132.582 134.971 132.92 134.702C133.258 134.434 133.508 134.081 133.671 133.643C133.833 133.206 133.914 132.732 133.914 132.222C133.914 131.711 133.833 131.236 133.671 130.795C133.508 130.354 133.258 129.998 132.92 129.726C132.582 129.454 132.151 129.318 131.627 129.318C131.104 129.318 130.673 129.454 130.335 129.726C129.997 129.998 129.746 130.354 129.584 130.795C129.422 131.236 129.34 131.711 129.34 132.222C129.34 132.732 129.422 133.206 129.584 133.643C129.746 134.081 129.997 134.434 130.335 134.702C130.673 134.971 131.104 135.105 131.627 135.105ZM136.879 136V128.364H138.012V129.517H138.092C138.231 129.139 138.483 128.833 138.847 128.597C139.212 128.362 139.623 128.244 140.08 128.244C140.166 128.244 140.274 128.246 140.403 128.249C140.533 128.253 140.63 128.258 140.697 128.264V129.457C140.657 129.447 140.566 129.433 140.423 129.413C140.284 129.389 140.137 129.378 139.981 129.378C139.61 129.378 139.278 129.456 138.987 129.612C138.698 129.764 138.469 129.976 138.3 130.248C138.135 130.516 138.052 130.823 138.052 131.168V136H136.879ZM148.909 136.159C148.272 136.159 147.71 135.998 147.223 135.677C146.736 135.352 146.355 134.895 146.08 134.305C145.805 133.711 145.667 133.01 145.667 132.202C145.667 131.4 145.805 130.704 146.08 130.114C146.355 129.524 146.738 129.068 147.228 128.746C147.719 128.425 148.285 128.264 148.928 128.264C149.426 128.264 149.818 128.347 150.107 128.513C150.398 128.675 150.62 128.861 150.773 129.07C150.929 129.275 151.05 129.444 151.136 129.577H151.235V125.818H152.409V136H151.275V134.827H151.136C151.05 134.966 150.927 135.142 150.768 135.354C150.609 135.562 150.382 135.75 150.087 135.915C149.792 136.078 149.399 136.159 148.909 136.159ZM149.068 135.105C149.538 135.105 149.936 134.982 150.261 134.737C150.586 134.489 150.833 134.146 151.002 133.708C151.171 133.267 151.255 132.759 151.255 132.182C151.255 131.612 151.172 131.113 151.007 130.685C150.841 130.254 150.596 129.92 150.271 129.681C149.946 129.439 149.545 129.318 149.068 129.318C148.57 129.318 148.156 129.446 147.825 129.701C147.497 129.953 147.25 130.296 147.084 130.73C146.922 131.161 146.84 131.645 146.84 132.182C146.84 132.725 146.923 133.219 147.089 133.663C147.258 134.104 147.507 134.455 147.835 134.717C148.166 134.976 148.577 135.105 149.068 135.105ZM154.72 136V128.364H155.854V129.517H155.933C156.073 129.139 156.325 128.833 156.689 128.597C157.054 128.362 157.465 128.244 157.922 128.244C158.008 128.244 158.116 128.246 158.245 128.249C158.374 128.253 158.472 128.258 158.539 128.264V129.457C158.499 129.447 158.408 129.433 158.265 129.413C158.126 129.389 157.978 129.378 157.823 129.378C157.451 129.378 157.12 129.456 156.828 129.612C156.54 129.764 156.311 129.976 156.142 130.248C155.977 130.516 155.894 130.823 155.894 131.168V136H154.72ZM162.799 136.159C162.11 136.159 161.505 135.995 160.985 135.667C160.468 135.339 160.063 134.88 159.771 134.29C159.483 133.7 159.339 133.01 159.339 132.222C159.339 131.426 159.483 130.732 159.771 130.138C160.063 129.545 160.468 129.085 160.985 128.756C161.505 128.428 162.11 128.264 162.799 128.264C163.489 128.264 164.092 128.428 164.609 128.756C165.129 129.085 165.534 129.545 165.822 130.138C166.114 130.732 166.259 131.426 166.259 132.222C166.259 133.01 166.114 133.7 165.822 134.29C165.534 134.88 165.129 135.339 164.609 135.667C164.092 135.995 163.489 136.159 162.799 136.159ZM162.799 135.105C163.323 135.105 163.754 134.971 164.092 134.702C164.43 134.434 164.68 134.081 164.843 133.643C165.005 133.206 165.086 132.732 165.086 132.222C165.086 131.711 165.005 131.236 164.843 130.795C164.68 130.354 164.43 129.998 164.092 129.726C163.754 129.454 163.323 129.318 162.799 129.318C162.276 129.318 161.845 129.454 161.507 129.726C161.169 129.998 160.918 130.354 160.756 130.795C160.593 131.236 160.512 131.711 160.512 132.222C160.512 132.732 160.593 133.206 160.756 133.643C160.918 134.081 161.169 134.434 161.507 134.702C161.845 134.971 162.276 135.105 162.799 135.105ZM168.05 138.864V128.364H169.184V129.577H169.323C169.409 129.444 169.529 129.275 169.681 129.07C169.837 128.861 170.059 128.675 170.347 128.513C170.639 128.347 171.033 128.264 171.531 128.264C172.174 128.264 172.74 128.425 173.231 128.746C173.721 129.068 174.104 129.524 174.379 130.114C174.654 130.704 174.792 131.4 174.792 132.202C174.792 133.01 174.654 133.711 174.379 134.305C174.104 134.895 173.723 135.352 173.236 135.677C172.749 135.998 172.187 136.159 171.55 136.159C171.06 136.159 170.667 136.078 170.372 135.915C170.077 135.75 169.85 135.562 169.691 135.354C169.532 135.142 169.409 134.966 169.323 134.827H169.224V138.864H168.05ZM169.204 132.182C169.204 132.759 169.288 133.267 169.457 133.708C169.626 134.146 169.873 134.489 170.198 134.737C170.523 134.982 170.921 135.105 171.391 135.105C171.882 135.105 172.291 134.976 172.619 134.717C172.951 134.455 173.199 134.104 173.365 133.663C173.534 133.219 173.619 132.725 173.619 132.182C173.619 131.645 173.536 131.161 173.37 130.73C173.208 130.296 172.961 129.953 172.629 129.701C172.301 129.446 171.888 129.318 171.391 129.318C170.914 129.318 170.513 129.439 170.188 129.681C169.863 129.92 169.618 130.254 169.452 130.685C169.287 131.113 169.204 131.612 169.204 132.182ZM181.692 131.406V136H180.519V125.818H181.692V129.557H181.792C181.971 129.162 182.239 128.849 182.597 128.617C182.959 128.382 183.439 128.264 184.039 128.264C184.559 128.264 185.015 128.369 185.406 128.577C185.797 128.783 186.101 129.099 186.316 129.527C186.535 129.951 186.644 130.491 186.644 131.148V136H185.471V131.227C185.471 130.621 185.313 130.152 184.999 129.82C184.687 129.486 184.254 129.318 183.701 129.318C183.317 129.318 182.972 129.399 182.667 129.562C182.365 129.724 182.127 129.961 181.951 130.273C181.779 130.584 181.692 130.962 181.692 131.406ZM191.992 136.159C191.257 136.159 190.622 135.997 190.088 135.672C189.558 135.344 189.149 134.886 188.86 134.3C188.575 133.71 188.433 133.024 188.433 132.241C188.433 131.459 188.575 130.77 188.86 130.173C189.149 129.573 189.55 129.106 190.063 128.771C190.58 128.433 191.184 128.264 191.873 128.264C192.271 128.264 192.664 128.33 193.051 128.463C193.439 128.596 193.792 128.811 194.11 129.109C194.428 129.404 194.682 129.795 194.871 130.283C195.06 130.77 195.154 131.37 195.154 132.082V132.58H189.268V131.565H193.961C193.961 131.134 193.875 130.75 193.703 130.412C193.534 130.074 193.292 129.807 192.977 129.612C192.665 129.416 192.297 129.318 191.873 129.318C191.406 129.318 191.001 129.434 190.66 129.666C190.322 129.895 190.062 130.193 189.879 130.561C189.697 130.929 189.606 131.323 189.606 131.744V132.42C189.606 132.997 189.705 133.486 189.904 133.887C190.106 134.285 190.387 134.588 190.744 134.797C191.102 135.002 191.518 135.105 191.992 135.105C192.301 135.105 192.579 135.062 192.828 134.976C193.079 134.886 193.297 134.754 193.479 134.578C193.661 134.399 193.802 134.177 193.901 133.912L195.035 134.23C194.916 134.615 194.715 134.953 194.433 135.244C194.152 135.533 193.804 135.758 193.389 135.92C192.975 136.08 192.509 136.159 191.992 136.159ZM196.939 136V128.364H198.073V129.517H198.152C198.291 129.139 198.543 128.833 198.908 128.597C199.272 128.362 199.683 128.244 200.141 128.244C200.227 128.244 200.335 128.246 200.464 128.249C200.593 128.253 200.691 128.258 200.757 128.264V129.457C200.718 129.447 200.626 129.433 200.484 129.413C200.345 129.389 200.197 129.378 200.041 129.378C199.67 129.378 199.339 129.456 199.047 129.612C198.759 129.764 198.53 129.976 198.361 130.248C198.195 130.516 198.112 130.823 198.112 131.168V136H196.939ZM205.117 136.159C204.382 136.159 203.747 135.997 203.213 135.672C202.683 135.344 202.274 134.886 201.985 134.3C201.7 133.71 201.558 133.024 201.558 132.241C201.558 131.459 201.7 130.77 201.985 130.173C202.274 129.573 202.675 129.106 203.188 128.771C203.705 128.433 204.309 128.264 204.998 128.264C205.396 128.264 205.789 128.33 206.176 128.463C206.564 128.596 206.917 128.811 207.235 129.109C207.553 129.404 207.807 129.795 207.996 130.283C208.185 130.77 208.279 131.37 208.279 132.082V132.58H202.393V131.565H207.086C207.086 131.134 207 130.75 206.828 130.412C206.659 130.074 206.417 129.807 206.102 129.612C205.79 129.416 205.422 129.318 204.998 129.318C204.531 129.318 204.126 129.434 203.785 129.666C203.447 129.895 203.187 130.193 203.004 130.561C202.822 130.929 202.731 131.323 202.731 131.744V132.42C202.731 132.997 202.83 133.486 203.029 133.887C203.231 134.285 203.512 134.588 203.869 134.797C204.227 135.002 204.643 135.105 205.117 135.105C205.426 135.105 205.704 135.062 205.953 134.976C206.204 134.886 206.422 134.754 206.604 134.578C206.786 134.399 206.927 134.177 207.026 133.912L208.16 134.23C208.041 134.615 207.84 134.953 207.558 135.244C207.277 135.533 206.929 135.758 206.514 135.92C206.1 136.08 205.634 136.159 205.117 136.159Z" fill="#474C54"/>
<path d="M35.8269 160H34.7189L37.9235 151.273H39.0144L42.2189 160H41.111L38.503 152.653H38.4348L35.8269 160ZM36.236 156.591H40.7019V157.528H36.236V156.591ZM46.8169 162.455V153.455H47.7885V154.494H47.9078C47.9817 154.381 48.084 154.236 48.2147 154.06C48.3482 153.881 48.5385 153.722 48.7857 153.582C49.0357 153.44 49.3738 153.369 49.7999 153.369C50.351 153.369 50.8368 153.507 51.2573 153.783C51.6777 154.058 52.0059 154.449 52.2417 154.955C52.4775 155.46 52.5953 156.057 52.5953 156.744C52.5953 157.438 52.4775 158.038 52.2417 158.547C52.0059 159.053 51.6792 159.445 51.2615 159.723C50.8439 159.999 50.3624 160.136 49.8169 160.136C49.3965 160.136 49.0598 160.067 48.807 159.928C48.5542 159.786 48.3596 159.625 48.2232 159.446C48.0868 159.264 47.9817 159.114 47.9078 158.994H47.8226V162.455H46.8169ZM47.8056 156.727C47.8056 157.222 47.878 157.658 48.0229 158.036C48.1678 158.411 48.3794 158.705 48.6578 158.918C48.9363 159.128 49.2772 159.233 49.6806 159.233C50.101 159.233 50.4519 159.122 50.7331 158.901C51.0172 158.676 51.2303 158.375 51.3723 157.997C51.5172 157.616 51.5897 157.193 51.5897 156.727C51.5897 156.267 51.5186 155.852 51.3766 155.483C51.2374 155.111 51.0257 154.817 50.7417 154.601C50.4604 154.382 50.1067 154.273 49.6806 154.273C49.2715 154.273 48.9277 154.376 48.6493 154.584C48.3709 154.788 48.1607 155.075 48.0186 155.445C47.8766 155.811 47.8056 156.239 47.8056 156.727ZM55.1351 156.062V160H54.1294V151.273H55.1351V154.477H55.2203C55.3738 154.139 55.6039 153.871 55.9107 153.672C56.2203 153.47 56.6323 153.369 57.1465 153.369C57.5925 153.369 57.9831 153.459 58.3184 153.638C58.6536 153.814 58.9135 154.085 59.0982 154.452C59.2857 154.815 59.3794 155.278 59.3794 155.841V160H58.3738V155.909C58.3738 155.389 58.2388 154.987 57.9689 154.703C57.7019 154.416 57.3311 154.273 56.8567 154.273C56.5272 154.273 56.2317 154.342 55.9703 154.482C55.7118 154.621 55.5073 154.824 55.3567 155.091C55.209 155.358 55.1351 155.682 55.1351 156.062ZM63.8784 160.136C63.2875 160.136 62.769 159.996 62.323 159.714C61.8798 159.433 61.5332 159.04 61.2832 158.534C61.036 158.028 60.9125 157.437 60.9125 156.761C60.9125 156.08 61.036 155.484 61.2832 154.976C61.5332 154.467 61.8798 154.072 62.323 153.791C62.769 153.51 63.2875 153.369 63.8784 153.369C64.4693 153.369 64.9863 153.51 65.4295 153.791C65.8755 154.072 66.2221 154.467 66.4693 154.976C66.7193 155.484 66.8443 156.08 66.8443 156.761C66.8443 157.437 66.7193 158.028 66.4693 158.534C66.2221 159.04 65.8755 159.433 65.4295 159.714C64.9863 159.996 64.4693 160.136 63.8784 160.136ZM63.8784 159.233C64.3272 159.233 64.6966 159.118 64.9863 158.888C65.2761 158.658 65.4906 158.355 65.6298 157.98C65.769 157.605 65.8386 157.199 65.8386 156.761C65.8386 156.324 65.769 155.916 65.6298 155.538C65.4906 155.161 65.2761 154.855 64.9863 154.622C64.6966 154.389 64.3272 154.273 63.8784 154.273C63.4295 154.273 63.0602 154.389 62.7704 154.622C62.4806 154.855 62.2662 155.161 62.127 155.538C61.9877 155.916 61.9181 156.324 61.9181 156.761C61.9181 157.199 61.9877 157.605 62.127 157.98C62.2662 158.355 62.4806 158.658 62.7704 158.888C63.0602 159.118 63.4295 159.233 63.8784 159.233ZM71.226 153.455V154.307H67.834V153.455H71.226ZM68.8226 151.886H69.8283V158.125C69.8283 158.409 69.8695 158.622 69.9519 158.764C70.0371 158.903 70.1451 158.997 70.2757 159.045C70.4093 159.091 70.5499 159.114 70.6976 159.114C70.8084 159.114 70.8993 159.108 70.9703 159.097C71.0414 159.082 71.0982 159.071 71.1408 159.062L71.3453 159.966C71.2772 159.991 71.182 160.017 71.0598 160.043C70.9377 160.071 70.7828 160.085 70.5953 160.085C70.3113 160.085 70.0328 160.024 69.7601 159.902C69.4902 159.78 69.2658 159.594 69.0868 159.344C68.9107 159.094 68.8226 158.778 68.8226 158.398V151.886ZM75.3276 160.136C74.7367 160.136 74.2182 159.996 73.7722 159.714C73.329 159.433 72.9824 159.04 72.7324 158.534C72.4853 158.028 72.3617 157.437 72.3617 156.761C72.3617 156.08 72.4853 155.484 72.7324 154.976C72.9824 154.467 73.329 154.072 73.7722 153.791C74.2182 153.51 74.7367 153.369 75.3276 153.369C75.9185 153.369 76.4355 153.51 76.8787 153.791C77.3248 154.072 77.6713 154.467 77.9185 154.976C78.1685 155.484 78.2935 156.08 78.2935 156.761C78.2935 157.437 78.1685 158.028 77.9185 158.534C77.6713 159.04 77.3248 159.433 76.8787 159.714C76.4355 159.996 75.9185 160.136 75.3276 160.136ZM75.3276 159.233C75.7765 159.233 76.1458 159.118 76.4355 158.888C76.7253 158.658 76.9398 158.355 77.079 157.98C77.2182 157.605 77.2878 157.199 77.2878 156.761C77.2878 156.324 77.2182 155.916 77.079 155.538C76.9398 155.161 76.7253 154.855 76.4355 154.622C76.1458 154.389 75.7765 154.273 75.3276 154.273C74.8787 154.273 74.5094 154.389 74.2196 154.622C73.9299 154.855 73.7154 155.161 73.5762 155.538C73.437 155.916 73.3674 156.324 73.3674 156.761C73.3674 157.199 73.437 157.605 73.5762 157.98C73.7154 158.355 73.9299 158.658 74.2196 158.888C74.5094 159.118 74.8787 159.233 75.3276 159.233ZM84.2093 151.273V160H83.2037V151.273H84.2093ZM87.9775 160.153C87.5627 160.153 87.1863 160.075 86.8482 159.919C86.5101 159.76 86.2417 159.531 86.0428 159.233C85.8439 158.932 85.7445 158.568 85.7445 158.142C85.7445 157.767 85.8184 157.463 85.9661 157.23C86.1138 156.994 86.3113 156.81 86.5584 156.676C86.8056 156.543 87.0783 156.443 87.3766 156.378C87.6777 156.31 87.9803 156.256 88.2843 156.216C88.682 156.165 89.0044 156.126 89.2516 156.101C89.5016 156.072 89.6834 156.026 89.7971 155.96C89.9135 155.895 89.9718 155.781 89.9718 155.619V155.585C89.9718 155.165 89.8567 154.838 89.6266 154.605C89.3993 154.372 89.0542 154.256 88.5911 154.256C88.111 154.256 87.7346 154.361 87.4618 154.571C87.1891 154.781 86.9973 155.006 86.8865 155.244L85.932 154.903C86.1025 154.506 86.3297 154.196 86.6138 153.974C86.9007 153.75 87.2132 153.594 87.5513 153.506C87.8922 153.415 88.2275 153.369 88.557 153.369C88.7672 153.369 89.0087 153.395 89.2814 153.446C89.557 153.494 89.8226 153.595 90.0783 153.749C90.3368 153.902 90.5513 154.134 90.7218 154.443C90.8922 154.753 90.9775 155.168 90.9775 155.688V160H89.9718V159.114H89.9206C89.8525 159.256 89.7388 159.408 89.5797 159.57C89.4206 159.732 89.209 159.869 88.9448 159.983C88.6806 160.097 88.3581 160.153 87.9775 160.153ZM88.1309 159.25C88.5286 159.25 88.8638 159.172 89.1365 159.016C89.4121 158.859 89.6195 158.658 89.7587 158.411C89.9007 158.163 89.9718 157.903 89.9718 157.631V156.71C89.9292 156.761 89.8354 156.808 89.6905 156.851C89.5485 156.891 89.3837 156.926 89.1962 156.957C89.0115 156.986 88.8311 157.011 88.655 157.034C88.4817 157.054 88.3411 157.071 88.2331 157.085C87.9718 157.119 87.7275 157.175 87.5002 157.251C87.2757 157.325 87.0939 157.437 86.9547 157.588C86.8184 157.736 86.7502 157.937 86.7502 158.193C86.7502 158.543 86.8794 158.807 87.138 158.986C87.3993 159.162 87.7303 159.25 88.1309 159.25ZM92.813 160V153.455H93.7846V154.443H93.8528C93.9721 154.119 94.188 153.857 94.5005 153.655C94.813 153.453 95.1653 153.352 95.5574 153.352C95.6312 153.352 95.7235 153.354 95.8343 153.357C95.9451 153.359 96.0289 153.364 96.0858 153.369V154.392C96.0517 154.384 95.9735 154.371 95.8514 154.354C95.7321 154.334 95.6056 154.324 95.4721 154.324C95.1539 154.324 94.8699 154.391 94.6199 154.524C94.3727 154.655 94.1767 154.837 94.0318 155.07C93.8897 155.3 93.8187 155.562 93.8187 155.858V160H92.813ZM99.7207 162.591C99.2349 162.591 98.8173 162.528 98.4679 162.403C98.1184 162.281 97.8272 162.119 97.5943 161.918C97.3642 161.719 97.1809 161.506 97.0446 161.278L97.8457 160.716C97.9366 160.835 98.0517 160.972 98.1909 161.125C98.3301 161.281 98.5204 161.416 98.7619 161.53C99.0062 161.646 99.3258 161.705 99.7207 161.705C100.249 161.705 100.685 161.577 101.029 161.321C101.373 161.065 101.545 160.665 101.545 160.119V158.79H101.459C101.385 158.909 101.28 159.057 101.144 159.233C101.01 159.406 100.817 159.561 100.564 159.697C100.314 159.831 99.9764 159.898 99.5502 159.898C99.0218 159.898 98.5474 159.773 98.127 159.523C97.7093 159.273 97.3784 158.909 97.1341 158.432C96.8926 157.955 96.7718 157.375 96.7718 156.693C96.7718 156.023 96.8897 155.439 97.1255 154.942C97.3613 154.442 97.6895 154.055 98.1099 153.783C98.5304 153.507 99.0162 153.369 99.5673 153.369C99.9934 153.369 100.331 153.44 100.581 153.582C100.834 153.722 101.028 153.881 101.161 154.06C101.297 154.236 101.403 154.381 101.476 154.494H101.579V153.455H102.55V160.188C102.55 160.75 102.422 161.207 102.167 161.56C101.914 161.915 101.573 162.175 101.144 162.339C100.718 162.507 100.243 162.591 99.7207 162.591ZM99.6866 158.994C100.09 158.994 100.431 158.902 100.709 158.717C100.988 158.533 101.199 158.267 101.344 157.92C101.489 157.574 101.562 157.159 101.562 156.676C101.562 156.205 101.491 155.788 101.349 155.428C101.206 155.067 100.996 154.784 100.718 154.58C100.439 154.375 100.096 154.273 99.6866 154.273C99.2605 154.273 98.9054 154.381 98.6213 154.597C98.34 154.812 98.1284 155.102 97.9863 155.466C97.8471 155.83 97.7775 156.233 97.7775 156.676C97.7775 157.131 97.8485 157.533 97.9906 157.882C98.1355 158.229 98.3485 158.501 98.6298 158.7C98.9139 158.896 99.2662 158.994 99.6866 158.994ZM107.135 160.136C106.505 160.136 105.961 159.997 105.503 159.719C105.049 159.438 104.698 159.045 104.451 158.543C104.206 158.037 104.084 157.449 104.084 156.778C104.084 156.108 104.206 155.517 104.451 155.006C104.698 154.491 105.042 154.091 105.482 153.804C105.925 153.514 106.442 153.369 107.033 153.369C107.374 153.369 107.711 153.426 108.043 153.54C108.376 153.653 108.678 153.838 108.951 154.094C109.224 154.347 109.441 154.682 109.603 155.099C109.765 155.517 109.846 156.031 109.846 156.642V157.068H104.8V156.199H108.823C108.823 155.83 108.749 155.5 108.601 155.21C108.456 154.92 108.249 154.692 107.979 154.524C107.712 154.357 107.397 154.273 107.033 154.273C106.633 154.273 106.286 154.372 105.993 154.571C105.704 154.767 105.481 155.023 105.324 155.338C105.168 155.653 105.09 155.991 105.09 156.352V156.932C105.09 157.426 105.175 157.845 105.346 158.189C105.519 158.53 105.759 158.79 106.066 158.969C106.373 159.145 106.729 159.233 107.135 159.233C107.4 159.233 107.638 159.196 107.851 159.122C108.067 159.045 108.253 158.932 108.41 158.781C108.566 158.628 108.687 158.437 108.772 158.21L109.743 158.483C109.641 158.812 109.469 159.102 109.228 159.352C108.986 159.599 108.688 159.793 108.333 159.932C107.978 160.068 107.579 160.136 107.135 160.136ZM111.376 160V153.455H112.347V154.443H112.415C112.535 154.119 112.751 153.857 113.063 153.655C113.376 153.453 113.728 153.352 114.12 153.352C114.194 153.352 114.286 153.354 114.397 153.357C114.508 153.359 114.591 153.364 114.648 153.369V154.392C114.614 154.384 114.536 154.371 114.414 154.354C114.295 154.334 114.168 154.324 114.035 154.324C113.716 154.324 113.432 154.391 113.182 154.524C112.935 154.655 112.739 154.837 112.594 155.07C112.452 155.3 112.381 155.562 112.381 155.858V160H111.376ZM122.062 153.455V154.307H118.67V153.455H122.062ZM119.659 151.886H120.664V158.125C120.664 158.409 120.705 158.622 120.788 158.764C120.873 158.903 120.981 158.997 121.112 159.045C121.245 159.091 121.386 159.114 121.534 159.114C121.644 159.114 121.735 159.108 121.806 159.097C121.877 159.082 121.934 159.071 121.977 159.062L122.181 159.966C122.113 159.991 122.018 160.017 121.896 160.043C121.774 160.071 121.619 160.085 121.431 160.085C121.147 160.085 120.869 160.024 120.596 159.902C120.326 159.78 120.102 159.594 119.923 159.344C119.747 159.094 119.659 158.778 119.659 158.398V151.886ZM124.721 156.062V160H123.715V151.273H124.721V154.477H124.806C124.96 154.139 125.19 153.871 125.497 153.672C125.806 153.47 126.218 153.369 126.732 153.369C127.178 153.369 127.569 153.459 127.904 153.638C128.24 153.814 128.499 154.085 128.684 154.452C128.872 154.815 128.965 155.278 128.965 155.841V160H127.96V155.909C127.96 155.389 127.825 154.987 127.555 154.703C127.288 154.416 126.917 154.273 126.443 154.273C126.113 154.273 125.818 154.342 125.556 154.482C125.298 154.621 125.093 154.824 124.943 155.091C124.795 155.358 124.721 155.682 124.721 156.062ZM132.731 160.153C132.317 160.153 131.94 160.075 131.602 159.919C131.264 159.76 130.996 159.531 130.797 159.233C130.598 158.932 130.498 158.568 130.498 158.142C130.498 157.767 130.572 157.463 130.72 157.23C130.868 156.994 131.065 156.81 131.312 156.676C131.559 156.543 131.832 156.443 132.131 156.378C132.432 156.31 132.734 156.256 133.038 156.216C133.436 156.165 133.758 156.126 134.006 156.101C134.256 156.072 134.437 156.026 134.551 155.96C134.667 155.895 134.726 155.781 134.726 155.619V155.585C134.726 155.165 134.611 154.838 134.381 154.605C134.153 154.372 133.808 154.256 133.345 154.256C132.865 154.256 132.488 154.361 132.216 154.571C131.943 154.781 131.751 155.006 131.64 155.244L130.686 154.903C130.856 154.506 131.084 154.196 131.368 153.974C131.655 153.75 131.967 153.594 132.305 153.506C132.646 153.415 132.981 153.369 133.311 153.369C133.521 153.369 133.763 153.395 134.035 153.446C134.311 153.494 134.577 153.595 134.832 153.749C135.091 153.902 135.305 154.134 135.476 154.443C135.646 154.753 135.731 155.168 135.731 155.688V160H134.726V159.114H134.675C134.606 159.256 134.493 159.408 134.334 159.57C134.175 159.732 133.963 159.869 133.699 159.983C133.434 160.097 133.112 160.153 132.731 160.153ZM132.885 159.25C133.282 159.25 133.618 159.172 133.89 159.016C134.166 158.859 134.373 158.658 134.513 158.411C134.655 158.163 134.726 157.903 134.726 157.631V156.71C134.683 156.761 134.589 156.808 134.444 156.851C134.302 156.891 134.138 156.926 133.95 156.957C133.765 156.986 133.585 157.011 133.409 157.034C133.236 157.054 133.095 157.071 132.987 157.085C132.726 157.119 132.481 157.175 132.254 157.251C132.03 157.325 131.848 157.437 131.709 157.588C131.572 157.736 131.504 157.937 131.504 158.193C131.504 158.543 131.633 158.807 131.892 158.986C132.153 159.162 132.484 159.25 132.885 159.25ZM138.573 156.062V160H137.567V153.455H138.539V154.477H138.624C138.777 154.145 139.01 153.878 139.323 153.676C139.635 153.472 140.039 153.369 140.533 153.369C140.976 153.369 141.364 153.46 141.696 153.642C142.029 153.821 142.287 154.094 142.472 154.46C142.656 154.824 142.749 155.284 142.749 155.841V160H141.743V155.909C141.743 155.395 141.61 154.994 141.343 154.707C141.075 154.418 140.709 154.273 140.243 154.273C139.922 154.273 139.635 154.342 139.382 154.482C139.132 154.621 138.935 154.824 138.79 155.091C138.645 155.358 138.573 155.682 138.573 156.062ZM147.74 158.21V157.341L151.575 151.273H152.206V152.619H151.78L148.882 157.205V157.273H154.047V158.21H147.74ZM151.848 160V157.946V157.541V151.273H152.854V160H151.848ZM158.49 160.119C157.848 160.119 157.301 159.945 156.85 159.595C156.398 159.243 156.053 158.733 155.814 158.065C155.575 157.395 155.456 156.585 155.456 155.636C155.456 154.693 155.575 153.888 155.814 153.22C156.056 152.55 156.402 152.038 156.854 151.686C157.308 151.331 157.854 151.153 158.49 151.153C159.127 151.153 159.671 151.331 160.122 151.686C160.577 152.038 160.923 152.55 161.162 153.22C161.404 153.888 161.524 154.693 161.524 155.636C161.524 156.585 161.405 157.395 161.166 158.065C160.928 158.733 160.583 159.243 160.131 159.595C159.679 159.945 159.132 160.119 158.49 160.119ZM158.49 159.182C159.127 159.182 159.621 158.875 159.973 158.261C160.325 157.648 160.502 156.773 160.502 155.636C160.502 154.881 160.421 154.237 160.259 153.706C160.1 153.175 159.869 152.77 159.568 152.491C159.27 152.213 158.911 152.074 158.49 152.074C157.86 152.074 157.367 152.385 157.012 153.007C156.656 153.626 156.479 154.503 156.479 155.636C156.479 156.392 156.558 157.034 156.718 157.562C156.877 158.091 157.105 158.493 157.404 158.768C157.705 159.044 158.067 159.182 158.49 159.182ZM165.99 160.119C165.348 160.119 164.801 159.945 164.35 159.595C163.898 159.243 163.553 158.733 163.314 158.065C163.075 157.395 162.956 156.585 162.956 155.636C162.956 154.693 163.075 153.888 163.314 153.22C163.556 152.55 163.902 152.038 164.354 151.686C164.808 151.331 165.354 151.153 165.99 151.153C166.627 151.153 167.171 151.331 167.622 151.686C168.077 152.038 168.423 152.55 168.662 153.22C168.904 153.888 169.024 154.693 169.024 155.636C169.024 156.585 168.905 157.395 168.666 158.065C168.428 158.733 168.083 159.243 167.631 159.595C167.179 159.945 166.632 160.119 165.99 160.119ZM165.99 159.182C166.627 159.182 167.121 158.875 167.473 158.261C167.825 157.648 168.002 156.773 168.002 155.636C168.002 154.881 167.921 154.237 167.759 153.706C167.6 153.175 167.369 152.77 167.068 152.491C166.77 152.213 166.411 152.074 165.99 152.074C165.36 152.074 164.867 152.385 164.512 153.007C164.156 153.626 163.979 154.503 163.979 155.636C163.979 156.392 164.058 157.034 164.218 157.562C164.377 158.091 164.605 158.493 164.904 158.768C165.205 159.044 165.567 159.182 165.99 159.182ZM174.036 162.455V153.455H175.007V154.494H175.127C175.2 154.381 175.303 154.236 175.433 154.06C175.567 153.881 175.757 153.722 176.004 153.582C176.254 153.44 176.593 153.369 177.019 153.369C177.57 153.369 178.056 153.507 178.476 153.783C178.896 154.058 179.225 154.449 179.46 154.955C179.696 155.46 179.814 156.057 179.814 156.744C179.814 157.438 179.696 158.038 179.46 158.547C179.225 159.053 178.898 159.445 178.48 159.723C178.063 159.999 177.581 160.136 177.036 160.136C176.615 160.136 176.279 160.067 176.026 159.928C175.773 159.786 175.578 159.625 175.442 159.446C175.306 159.264 175.2 159.114 175.127 158.994H175.041V162.455H174.036ZM175.024 156.727C175.024 157.222 175.097 157.658 175.242 158.036C175.387 158.411 175.598 158.705 175.877 158.918C176.155 159.128 176.496 159.233 176.899 159.233C177.32 159.233 177.671 159.122 177.952 158.901C178.236 158.676 178.449 158.375 178.591 157.997C178.736 157.616 178.808 157.193 178.808 156.727C178.808 156.267 178.737 155.852 178.595 155.483C178.456 155.111 178.244 154.817 177.96 154.601C177.679 154.382 177.325 154.273 176.899 154.273C176.49 154.273 176.146 154.376 175.868 154.584C175.59 154.788 175.379 155.075 175.237 155.445C175.095 155.811 175.024 156.239 175.024 156.727ZM181.348 160V153.455H182.354V160H181.348ZM181.86 152.364C181.664 152.364 181.494 152.297 181.352 152.163C181.213 152.03 181.144 151.869 181.144 151.682C181.144 151.494 181.213 151.334 181.352 151.2C181.494 151.067 181.664 151 181.86 151C182.056 151 182.223 151.067 182.362 151.2C182.504 151.334 182.575 151.494 182.575 151.682C182.575 151.869 182.504 152.03 182.362 152.163C182.223 152.297 182.056 152.364 181.86 152.364ZM184.946 153.455L186.514 156.131L188.082 153.455H189.241L187.128 156.727L189.241 160H188.082L186.514 157.46L184.946 160H183.787L185.866 156.727L183.787 153.455H184.946ZM193.151 160.136C192.52 160.136 191.976 159.997 191.519 159.719C191.064 159.438 190.714 159.045 190.466 158.543C190.222 158.037 190.1 157.449 190.1 156.778C190.1 156.108 190.222 155.517 190.466 155.006C190.714 154.491 191.057 154.091 191.498 153.804C191.941 153.514 192.458 153.369 193.049 153.369C193.39 153.369 193.726 153.426 194.059 153.54C194.391 153.653 194.694 153.838 194.966 154.094C195.239 154.347 195.456 154.682 195.618 155.099C195.78 155.517 195.861 156.031 195.861 156.642V157.068H190.816V156.199H194.839C194.839 155.83 194.765 155.5 194.617 155.21C194.472 154.92 194.265 154.692 193.995 154.524C193.728 154.357 193.412 154.273 193.049 154.273C192.648 154.273 192.302 154.372 192.009 154.571C191.719 154.767 191.496 155.023 191.34 155.338C191.184 155.653 191.106 155.991 191.106 156.352V156.932C191.106 157.426 191.191 157.845 191.361 158.189C191.535 158.53 191.775 158.79 192.081 158.969C192.388 159.145 192.745 159.233 193.151 159.233C193.415 159.233 193.654 159.196 193.867 159.122C194.083 159.045 194.269 158.932 194.425 158.781C194.581 158.628 194.702 158.437 194.787 158.21L195.759 158.483C195.657 158.812 195.485 159.102 195.243 159.352C195.002 159.599 194.704 159.793 194.349 159.932C193.993 160.068 193.594 160.136 193.151 160.136ZM198.397 151.273V160H197.391V151.273H198.397ZM204.875 154.92L203.972 155.176C203.915 155.026 203.831 154.879 203.72 154.737C203.612 154.592 203.465 154.473 203.277 154.379C203.09 154.286 202.85 154.239 202.557 154.239C202.156 154.239 201.823 154.331 201.556 154.516C201.291 154.697 201.159 154.929 201.159 155.21C201.159 155.46 201.25 155.658 201.432 155.803C201.614 155.947 201.898 156.068 202.284 156.165L203.256 156.403C203.841 156.545 204.277 156.763 204.564 157.055C204.851 157.345 204.994 157.719 204.994 158.176C204.994 158.551 204.887 158.886 204.671 159.182C204.458 159.477 204.159 159.71 203.776 159.881C203.392 160.051 202.946 160.136 202.438 160.136C201.77 160.136 201.218 159.991 200.78 159.702C200.343 159.412 200.066 158.989 199.949 158.432L200.904 158.193C200.994 158.545 201.166 158.81 201.419 158.986C201.675 159.162 202.009 159.25 202.421 159.25C202.889 159.25 203.262 159.151 203.537 158.952C203.816 158.75 203.955 158.509 203.955 158.227C203.955 158 203.875 157.81 203.716 157.656C203.557 157.5 203.313 157.384 202.983 157.307L201.892 157.051C201.293 156.909 200.852 156.689 200.571 156.391C200.293 156.089 200.154 155.713 200.154 155.261C200.154 154.892 200.257 154.565 200.465 154.281C200.675 153.997 200.96 153.774 201.321 153.612C201.685 153.45 202.097 153.369 202.557 153.369C203.205 153.369 203.713 153.511 204.083 153.795C204.455 154.08 204.719 154.455 204.875 154.92ZM30.0421 178L28.0478 171.455H29.1046L30.5194 176.466H30.5875L31.9853 171.455H33.0591L34.4398 176.449H34.508L35.9228 171.455H36.9796L34.9853 178H33.9966L32.5648 172.972H32.4625L31.0307 178H30.0421ZM40.7456 178.136C40.1547 178.136 39.6362 177.996 39.1902 177.714C38.747 177.433 38.4004 177.04 38.1504 176.534C37.9032 176.028 37.7797 175.437 37.7797 174.761C37.7797 174.08 37.9032 173.484 38.1504 172.976C38.4004 172.467 38.747 172.072 39.1902 171.791C39.6362 171.51 40.1547 171.369 40.7456 171.369C41.3365 171.369 41.8535 171.51 42.2967 171.791C42.7427 172.072 43.0893 172.467 43.3365 172.976C43.5865 173.484 43.7115 174.08 43.7115 174.761C43.7115 175.437 43.5865 176.028 43.3365 176.534C43.0893 177.04 42.7427 177.433 42.2967 177.714C41.8535 177.996 41.3365 178.136 40.7456 178.136ZM40.7456 177.233C41.1944 177.233 41.5637 177.118 41.8535 176.888C42.1433 176.658 42.3578 176.355 42.497 175.98C42.6362 175.605 42.7058 175.199 42.7058 174.761C42.7058 174.324 42.6362 173.916 42.497 173.538C42.3578 173.161 42.1433 172.855 41.8535 172.622C41.5637 172.389 41.1944 172.273 40.7456 172.273C40.2967 172.273 39.9274 172.389 39.6376 172.622C39.3478 172.855 39.1333 173.161 38.9941 173.538C38.8549 173.916 38.7853 174.324 38.7853 174.761C38.7853 175.199 38.8549 175.605 38.9941 175.98C39.1333 176.355 39.3478 176.658 39.6376 176.888C39.9274 177.118 40.2967 177.233 40.7456 177.233ZM45.2466 178V171.455H46.2182V172.443H46.2864C46.4057 172.119 46.6216 171.857 46.9341 171.655C47.2466 171.453 47.5989 171.352 47.9909 171.352C48.0648 171.352 48.1571 171.354 48.2679 171.357C48.3787 171.359 48.4625 171.364 48.5194 171.369V172.392C48.4853 172.384 48.4071 172.371 48.285 172.354C48.1657 172.334 48.0392 172.324 47.9057 172.324C47.5875 172.324 47.3034 172.391 47.0534 172.524C46.8063 172.655 46.6103 172.837 46.4654 173.07C46.3233 173.3 46.2523 173.562 46.2523 173.858V178H45.2466ZM50.649 175.614L50.6319 174.369H50.8365L53.7001 171.455H54.9444L51.8933 174.54H51.8081L50.649 175.614ZM49.7115 178V169.273H50.7172V178H49.7115ZM53.8706 178L51.3137 174.761L52.0297 174.062L55.149 178H53.8706ZM59.7502 178V169.273H60.7559V172.494H60.8411C60.915 172.381 61.0172 172.236 61.1479 172.06C61.2814 171.881 61.4718 171.722 61.7189 171.582C61.9689 171.44 62.307 171.369 62.7331 171.369C63.2843 171.369 63.7701 171.507 64.1905 171.783C64.611 172.058 64.9391 172.449 65.1749 172.955C65.4107 173.46 65.5286 174.057 65.5286 174.744C65.5286 175.438 65.4107 176.038 65.1749 176.547C64.9391 177.053 64.6124 177.445 64.1948 177.723C63.7772 177.999 63.2956 178.136 62.7502 178.136C62.3297 178.136 61.9931 178.067 61.7402 177.928C61.4874 177.786 61.2928 177.625 61.1564 177.446C61.0201 177.264 60.915 177.114 60.8411 176.994H60.7218V178H59.7502ZM60.7388 174.727C60.7388 175.222 60.8113 175.658 60.9561 176.036C61.101 176.411 61.3127 176.705 61.5911 176.918C61.8695 177.128 62.2104 177.233 62.6138 177.233C63.0343 177.233 63.3851 177.122 63.6664 176.901C63.9505 176.676 64.1635 176.375 64.3056 175.997C64.4505 175.616 64.5229 175.193 64.5229 174.727C64.5229 174.267 64.4519 173.852 64.3098 173.483C64.1706 173.111 63.959 172.817 63.6749 172.601C63.3936 172.382 63.04 172.273 62.6138 172.273C62.2047 172.273 61.861 172.376 61.5826 172.584C61.3042 172.788 61.0939 173.075 60.9519 173.445C60.8098 173.811 60.7388 174.239 60.7388 174.727ZM69.8113 178.136C69.1806 178.136 68.6365 177.997 68.1792 177.719C67.7246 177.438 67.3738 177.045 67.1266 176.543C66.8823 176.037 66.7601 175.449 66.7601 174.778C66.7601 174.108 66.8823 173.517 67.1266 173.006C67.3738 172.491 67.7175 172.091 68.1578 171.804C68.601 171.514 69.1181 171.369 69.709 171.369C70.0499 171.369 70.3865 171.426 70.7189 171.54C71.0513 171.653 71.3539 171.838 71.6266 172.094C71.8993 172.347 72.1167 172.682 72.2786 173.099C72.4405 173.517 72.5215 174.031 72.5215 174.642V175.068H67.476V174.199H71.4988C71.4988 173.83 71.4249 173.5 71.2772 173.21C71.1323 172.92 70.9249 172.692 70.655 172.524C70.388 172.357 70.0726 172.273 69.709 172.273C69.3084 172.273 68.9618 172.372 68.6692 172.571C68.3794 172.767 68.1564 173.023 68.0002 173.338C67.8439 173.653 67.7658 173.991 67.7658 174.352V174.932C67.7658 175.426 67.851 175.845 68.0215 176.189C68.1948 176.53 68.4348 176.79 68.7417 176.969C69.0485 177.145 69.405 177.233 69.8113 177.233C70.0755 177.233 70.3141 177.196 70.5272 177.122C70.7431 177.045 70.9292 176.932 71.0854 176.781C71.2417 176.628 71.3624 176.437 71.4476 176.21L72.4192 176.483C72.3169 176.812 72.1451 177.102 71.9036 177.352C71.6621 177.599 71.3638 177.793 71.0087 177.932C70.6536 178.068 70.2544 178.136 69.8113 178.136ZM78.6877 172.92L77.7843 173.176C77.7275 173.026 77.6436 172.879 77.5328 172.737C77.4249 172.592 77.2772 172.473 77.0897 172.379C76.9022 172.286 76.6621 172.239 76.3695 172.239C75.9689 172.239 75.6351 172.331 75.3681 172.516C75.1039 172.697 74.9718 172.929 74.9718 173.21C74.9718 173.46 75.0627 173.658 75.2445 173.803C75.4263 173.947 75.7104 174.068 76.0968 174.165L77.0684 174.403C77.6536 174.545 78.0897 174.763 78.3766 175.055C78.6635 175.345 78.807 175.719 78.807 176.176C78.807 176.551 78.699 176.886 78.4831 177.182C78.2701 177.477 77.9718 177.71 77.5882 177.881C77.2047 178.051 76.7587 178.136 76.2502 178.136C75.5826 178.136 75.03 177.991 74.5925 177.702C74.155 177.412 73.878 176.989 73.7615 176.432L74.7161 176.193C74.807 176.545 74.9789 176.81 75.2317 176.986C75.4874 177.162 75.8212 177.25 76.2331 177.25C76.7019 177.25 77.074 177.151 77.3496 176.952C77.628 176.75 77.7672 176.509 77.7672 176.227C77.7672 176 77.6877 175.81 77.5286 175.656C77.3695 175.5 77.1252 175.384 76.7956 175.307L75.7047 175.051C75.1053 174.909 74.665 174.689 74.3837 174.391C74.1053 174.089 73.9661 173.713 73.9661 173.261C73.9661 172.892 74.0698 172.565 74.2772 172.281C74.4874 171.997 74.7729 171.774 75.1337 171.612C75.4973 171.45 75.9093 171.369 76.3695 171.369C77.0172 171.369 77.5257 171.511 77.8951 171.795C78.2672 172.08 78.5314 172.455 78.6877 172.92ZM83.1674 171.455V172.307H79.7754V171.455H83.1674ZM80.764 169.886H81.7697V176.125C81.7697 176.409 81.8109 176.622 81.8933 176.764C81.9785 176.903 82.0865 176.997 82.2172 177.045C82.3507 177.091 82.4913 177.114 82.639 177.114C82.7498 177.114 82.8407 177.108 82.9118 177.097C82.9828 177.082 83.0396 177.071 83.0822 177.062L83.2868 177.966C83.2186 177.991 83.1234 178.017 83.0012 178.043C82.8791 178.071 82.7243 178.085 82.5368 178.085C82.2527 178.085 81.9743 178.024 81.7015 177.902C81.4316 177.78 81.2072 177.594 81.0282 177.344C80.8521 177.094 80.764 176.778 80.764 176.398V169.886ZM85.4132 178.068C85.2029 178.068 85.0225 177.993 84.872 177.842C84.7214 177.692 84.6461 177.511 84.6461 177.301C84.6461 177.091 84.7214 176.911 84.872 176.76C85.0225 176.609 85.2029 176.534 85.4132 176.534C85.6234 176.534 85.8038 176.609 85.9544 176.76C86.1049 176.911 86.1802 177.091 86.1802 177.301C86.1802 177.44 86.1447 177.568 86.0737 177.685C86.0055 177.801 85.9132 177.895 85.7967 177.966C85.6831 178.034 85.5552 178.068 85.4132 178.068ZM91.4963 169.273H92.7576L95.7235 176.517H95.8258L98.7917 169.273H100.053V178H99.0645V171.369H98.9792L96.252 178H95.2974L92.5701 171.369H92.4849V178H91.4963V169.273ZM103.962 178.153C103.547 178.153 103.171 178.075 102.833 177.919C102.494 177.76 102.226 177.531 102.027 177.233C101.828 176.932 101.729 176.568 101.729 176.142C101.729 175.767 101.803 175.463 101.95 175.23C102.098 174.994 102.296 174.81 102.543 174.676C102.79 174.543 103.063 174.443 103.361 174.378C103.662 174.31 103.965 174.256 104.269 174.216C104.666 174.165 104.989 174.126 105.236 174.101C105.486 174.072 105.668 174.026 105.781 173.96C105.898 173.895 105.956 173.781 105.956 173.619V173.585C105.956 173.165 105.841 172.838 105.611 172.605C105.384 172.372 105.039 172.256 104.575 172.256C104.095 172.256 103.719 172.361 103.446 172.571C103.173 172.781 102.982 173.006 102.871 173.244L101.916 172.903C102.087 172.506 102.314 172.196 102.598 171.974C102.885 171.75 103.198 171.594 103.536 171.506C103.877 171.415 104.212 171.369 104.541 171.369C104.752 171.369 104.993 171.395 105.266 171.446C105.541 171.494 105.807 171.595 106.063 171.749C106.321 171.902 106.536 172.134 106.706 172.443C106.877 172.753 106.962 173.168 106.962 173.688V178H105.956V177.114H105.905C105.837 177.256 105.723 177.408 105.564 177.57C105.405 177.732 105.193 177.869 104.929 177.983C104.665 178.097 104.343 178.153 103.962 178.153ZM104.115 177.25C104.513 177.25 104.848 177.172 105.121 177.016C105.396 176.859 105.604 176.658 105.743 176.411C105.885 176.163 105.956 175.903 105.956 175.631V174.71C105.914 174.761 105.82 174.808 105.675 174.851C105.533 174.891 105.368 174.926 105.181 174.957C104.996 174.986 104.816 175.011 104.639 175.034C104.466 175.054 104.325 175.071 104.218 175.085C103.956 175.119 103.712 175.175 103.485 175.251C103.26 175.325 103.078 175.437 102.939 175.588C102.803 175.736 102.735 175.937 102.735 176.193C102.735 176.543 102.864 176.807 103.122 176.986C103.384 177.162 103.715 177.25 104.115 177.25ZM109.547 171.455L111.116 174.131L112.684 171.455H113.843L111.729 174.727L113.843 178H112.684L111.116 175.46L109.547 178H108.388L110.468 174.727L108.388 171.455H109.547ZM118.653 180.455V171.455H119.624V172.494H119.744C119.818 172.381 119.92 172.236 120.051 172.06C120.184 171.881 120.374 171.722 120.622 171.582C120.872 171.44 121.21 171.369 121.636 171.369C122.187 171.369 122.673 171.507 123.093 171.783C123.514 172.058 123.842 172.449 124.078 172.955C124.313 173.46 124.431 174.057 124.431 174.744C124.431 175.438 124.313 176.038 124.078 176.547C123.842 177.053 123.515 177.445 123.097 177.723C122.68 177.999 122.198 178.136 121.653 178.136C121.232 178.136 120.896 178.067 120.643 177.928C120.39 177.786 120.195 177.625 120.059 177.446C119.923 177.264 119.818 177.114 119.744 176.994H119.659V180.455H118.653ZM119.642 174.727C119.642 175.222 119.714 175.658 119.859 176.036C120.004 176.411 120.215 176.705 120.494 176.918C120.772 177.128 121.113 177.233 121.517 177.233C121.937 177.233 122.288 177.122 122.569 176.901C122.853 176.676 123.066 176.375 123.208 175.997C123.353 175.616 123.426 175.193 123.426 174.727C123.426 174.267 123.355 173.852 123.213 173.483C123.073 173.111 122.862 172.817 122.578 172.601C122.296 172.382 121.943 172.273 121.517 172.273C121.107 172.273 120.764 172.376 120.485 172.584C120.207 172.788 119.997 173.075 119.855 173.445C119.713 173.811 119.642 174.239 119.642 174.727ZM126.971 174.062V178H125.965V169.273H126.971V172.477H127.056C127.21 172.139 127.44 171.871 127.747 171.672C128.056 171.47 128.468 171.369 128.982 171.369C129.428 171.369 129.819 171.459 130.154 171.638C130.49 171.814 130.749 172.085 130.934 172.452C131.122 172.815 131.215 173.278 131.215 173.841V178H130.21V173.909C130.21 173.389 130.075 172.987 129.805 172.703C129.538 172.416 129.167 172.273 128.693 172.273C128.363 172.273 128.068 172.342 127.806 172.482C127.548 172.621 127.343 172.824 127.193 173.091C127.045 173.358 126.971 173.682 126.971 174.062ZM135.714 178.136C135.123 178.136 134.605 177.996 134.159 177.714C133.716 177.433 133.369 177.04 133.119 176.534C132.872 176.028 132.748 175.437 132.748 174.761C132.748 174.08 132.872 173.484 133.119 172.976C133.369 172.467 133.716 172.072 134.159 171.791C134.605 171.51 135.123 171.369 135.714 171.369C136.305 171.369 136.822 171.51 137.265 171.791C137.711 172.072 138.058 172.467 138.305 172.976C138.555 173.484 138.68 174.08 138.68 174.761C138.68 175.437 138.555 176.028 138.305 176.534C138.058 177.04 137.711 177.433 137.265 177.714C136.822 177.996 136.305 178.136 135.714 178.136ZM135.714 177.233C136.163 177.233 136.532 177.118 136.822 176.888C137.112 176.658 137.327 176.355 137.466 175.98C137.605 175.605 137.675 175.199 137.675 174.761C137.675 174.324 137.605 173.916 137.466 173.538C137.327 173.161 137.112 172.855 136.822 172.622C136.532 172.389 136.163 172.273 135.714 172.273C135.265 172.273 134.896 172.389 134.606 172.622C134.317 172.855 134.102 173.161 133.963 173.538C133.824 173.916 133.754 174.324 133.754 174.761C133.754 175.199 133.824 175.605 133.963 175.98C134.102 176.355 134.317 176.658 134.606 176.888C134.896 177.118 135.265 177.233 135.714 177.233ZM143.062 171.455V172.307H139.67V171.455H143.062ZM140.659 169.886H141.664V176.125C141.664 176.409 141.705 176.622 141.788 176.764C141.873 176.903 141.981 176.997 142.112 177.045C142.245 177.091 142.386 177.114 142.534 177.114C142.644 177.114 142.735 177.108 142.806 177.097C142.877 177.082 142.934 177.071 142.977 177.062L143.181 177.966C143.113 177.991 143.018 178.017 142.896 178.043C142.774 178.071 142.619 178.085 142.431 178.085C142.147 178.085 141.869 178.024 141.596 177.902C141.326 177.78 141.102 177.594 140.923 177.344C140.747 177.094 140.659 176.778 140.659 176.398V169.886ZM147.164 178.136C146.573 178.136 146.054 177.996 145.608 177.714C145.165 177.433 144.818 177.04 144.568 176.534C144.321 176.028 144.198 175.437 144.198 174.761C144.198 174.08 144.321 173.484 144.568 172.976C144.818 172.467 145.165 172.072 145.608 171.791C146.054 171.51 146.573 171.369 147.164 171.369C147.754 171.369 148.271 171.51 148.715 171.791C149.161 172.072 149.507 172.467 149.754 172.976C150.004 173.484 150.129 174.08 150.129 174.761C150.129 175.437 150.004 176.028 149.754 176.534C149.507 177.04 149.161 177.433 148.715 177.714C148.271 177.996 147.754 178.136 147.164 178.136ZM147.164 177.233C147.612 177.233 147.982 177.118 148.271 176.888C148.561 176.658 148.776 176.355 148.915 175.98C149.054 175.605 149.124 175.199 149.124 174.761C149.124 174.324 149.054 173.916 148.915 173.538C148.776 173.161 148.561 172.855 148.271 172.622C147.982 172.389 147.612 172.273 147.164 172.273C146.715 172.273 146.345 172.389 146.056 172.622C145.766 172.855 145.551 173.161 145.412 173.538C145.273 173.916 145.203 174.324 145.203 174.761C145.203 175.199 145.273 175.605 145.412 175.98C145.551 176.355 145.766 176.658 146.056 176.888C146.345 177.118 146.715 177.233 147.164 177.233ZM159.676 172.92L158.773 173.176C158.716 173.026 158.632 172.879 158.521 172.737C158.413 172.592 158.265 172.473 158.078 172.379C157.89 172.286 157.65 172.239 157.358 172.239C156.957 172.239 156.623 172.331 156.356 172.516C156.092 172.697 155.96 172.929 155.96 173.21C155.96 173.46 156.051 173.658 156.233 173.803C156.415 173.947 156.699 174.068 157.085 174.165L158.057 174.403C158.642 174.545 159.078 174.763 159.365 175.055C159.652 175.345 159.795 175.719 159.795 176.176C159.795 176.551 159.687 176.886 159.471 177.182C159.258 177.477 158.96 177.71 158.577 177.881C158.193 178.051 157.747 178.136 157.238 178.136C156.571 178.136 156.018 177.991 155.581 177.702C155.143 177.412 154.866 176.989 154.75 176.432L155.704 176.193C155.795 176.545 155.967 176.81 156.22 176.986C156.476 177.162 156.809 177.25 157.221 177.25C157.69 177.25 158.062 177.151 158.338 176.952C158.616 176.75 158.756 176.509 158.756 176.227C158.756 176 158.676 175.81 158.517 175.656C158.358 175.5 158.113 175.384 157.784 175.307L156.693 175.051C156.094 174.909 155.653 174.689 155.372 174.391C155.094 174.089 154.954 173.713 154.954 173.261C154.954 172.892 155.058 172.565 155.265 172.281C155.476 171.997 155.761 171.774 156.122 171.612C156.486 171.45 156.898 171.369 157.358 171.369C158.006 171.369 158.514 171.511 158.883 171.795C159.256 172.08 159.52 172.455 159.676 172.92ZM161.309 178V171.455H162.315V178H161.309ZM161.82 170.364C161.624 170.364 161.455 170.297 161.313 170.163C161.174 170.03 161.105 169.869 161.105 169.682C161.105 169.494 161.174 169.334 161.313 169.2C161.455 169.067 161.624 169 161.82 169C162.017 169 162.184 169.067 162.323 169.2C162.465 169.334 162.536 169.494 162.536 169.682C162.536 169.869 162.465 170.03 162.323 170.163C162.184 170.297 162.017 170.364 161.82 170.364ZM163.969 178V177.233L167.685 172.46V172.392H164.089V171.455H168.981V172.256L165.367 176.994V177.062H169.1V178H163.969ZM173.206 178.136C172.575 178.136 172.031 177.997 171.574 177.719C171.119 177.438 170.768 177.045 170.521 176.543C170.277 176.037 170.155 175.449 170.155 174.778C170.155 174.108 170.277 173.517 170.521 173.006C170.768 172.491 171.112 172.091 171.552 171.804C171.996 171.514 172.513 171.369 173.104 171.369C173.444 171.369 173.781 171.426 174.113 171.54C174.446 171.653 174.748 171.838 175.021 172.094C175.294 172.347 175.511 172.682 175.673 173.099C175.835 173.517 175.916 174.031 175.916 174.642V175.068H170.871V174.199H174.893C174.893 173.83 174.819 173.5 174.672 173.21C174.527 172.92 174.319 172.692 174.05 172.524C173.782 172.357 173.467 172.273 173.104 172.273C172.703 172.273 172.356 172.372 172.064 172.571C171.774 172.767 171.551 173.023 171.395 173.338C171.238 173.653 171.16 173.991 171.16 174.352V174.932C171.16 175.426 171.246 175.845 171.416 176.189C171.589 176.53 171.829 176.79 172.136 176.969C172.443 177.145 172.8 177.233 173.206 177.233C173.47 177.233 173.709 177.196 173.922 177.122C174.138 177.045 174.324 176.932 174.48 176.781C174.636 176.628 174.757 176.437 174.842 176.21L175.814 176.483C175.711 176.812 175.54 177.102 175.298 177.352C175.057 177.599 174.758 177.793 174.403 177.932C174.048 178.068 173.649 178.136 173.206 178.136ZM183.531 178.119C183.031 178.119 182.581 178.02 182.18 177.821C181.78 177.622 181.459 177.349 181.217 177.003C180.976 176.656 180.844 176.261 180.821 175.818H181.844C181.883 176.213 182.062 176.54 182.381 176.798C182.702 177.054 183.085 177.182 183.531 177.182C183.889 177.182 184.207 177.098 184.486 176.93C184.767 176.763 184.987 176.533 185.146 176.24C185.308 175.945 185.389 175.611 185.389 175.239C185.389 174.858 185.305 174.518 185.138 174.22C184.973 173.919 184.746 173.682 184.456 173.509C184.166 173.335 183.835 173.247 183.463 173.244C183.196 173.241 182.922 173.283 182.64 173.368C182.359 173.45 182.128 173.557 181.946 173.688L180.957 173.568L181.486 169.273H186.02V170.21H182.372L182.065 172.784H182.116C182.295 172.642 182.52 172.524 182.79 172.43C183.059 172.337 183.341 172.29 183.633 172.29C184.167 172.29 184.643 172.418 185.061 172.673C185.481 172.926 185.811 173.273 186.05 173.713C186.291 174.153 186.412 174.656 186.412 175.222C186.412 175.778 186.287 176.276 186.037 176.713C185.79 177.148 185.449 177.491 185.014 177.744C184.579 177.994 184.085 178.119 183.531 178.119ZM191.633 169.273H192.894L195.86 176.517H195.963L198.928 169.273H200.19V178H199.201V171.369H199.116L196.389 178H195.434L192.707 171.369H192.622V178H191.633V169.273ZM202.309 178V169.273H205.36C205.968 169.273 206.469 169.378 206.864 169.588C207.259 169.795 207.553 170.075 207.746 170.428C207.939 170.777 208.036 171.165 208.036 171.591C208.036 171.966 207.969 172.276 207.836 172.52C207.705 172.764 207.532 172.957 207.316 173.099C207.103 173.241 206.871 173.347 206.621 173.415V173.5C206.888 173.517 207.157 173.611 207.427 173.781C207.697 173.952 207.922 174.196 208.104 174.514C208.286 174.832 208.377 175.222 208.377 175.682C208.377 176.119 208.278 176.513 208.079 176.862C207.88 177.212 207.566 177.489 207.137 177.693C206.708 177.898 206.15 178 205.462 178H202.309ZM203.366 177.062H205.462C206.153 177.062 206.643 176.929 206.932 176.662C207.225 176.392 207.371 176.065 207.371 175.682C207.371 175.386 207.296 175.114 207.145 174.864C206.995 174.611 206.78 174.409 206.502 174.259C206.224 174.105 205.894 174.028 205.513 174.028H203.366V177.062ZM203.366 173.108H205.326C205.644 173.108 205.931 173.045 206.187 172.92C206.445 172.795 206.65 172.619 206.8 172.392C206.954 172.165 207.03 171.898 207.03 171.591C207.03 171.207 206.897 170.882 206.63 170.615C206.363 170.345 205.939 170.21 205.36 170.21H203.366V173.108ZM210.71 178.068C210.5 178.068 210.319 177.993 210.169 177.842C210.018 177.692 209.943 177.511 209.943 177.301C209.943 177.091 210.018 176.911 210.169 176.76C210.319 176.609 210.5 176.534 210.71 176.534C210.92 176.534 211.101 176.609 211.251 176.76C211.402 176.911 211.477 177.091 211.477 177.301C211.477 177.44 211.442 177.568 211.371 177.685C211.302 177.801 211.21 177.895 211.094 177.966C210.98 178.034 210.852 178.068 210.71 178.068Z" fill="#767F8C"/>
</svg>
