<svg xmlns="http://www.w3.org/2000/svg" viewBox="0 0 600 600" width="600" height="600">
  <!-- Robot head -->
  <rect x="250" y="100" width="150" height="130" fill="#333" rx="10" />
  <text x="300" y="165" font-family="Arial" font-size="40" text-anchor="middle" fill="#fff">404</text>
  <circle cx="280" cy="140" r="15" fill="#fff" />
  <circle cx="370" cy="140" r="15" fill="#fff" />
  <line x1="275" y1="140" x2="285" y2="140" stroke="#333" stroke-width="3" />
  <line x1="365" y1="140" x2="375" y2="140" stroke="#333" stroke-width="3" />
  
  <!-- Robot body -->
  <rect x="270" y="240" width="110" height="140" fill="#333" rx="10" />
  <rect x="300" y="280" width="50" height="60" fill="#0d6efd" rx="5" />
  
  <!-- Arms -->
  <rect x="170" y="260" width="100" height="20" fill="#ddd" rx="10" />
  <rect x="380" y="260" width="100" height="20" fill="#ddd" rx="10" />
  <rect x="170" y="280" width="20" height="100" fill="#ddd" rx="10" />
  <rect x="460" y="280" width="20" height="100" fill="#ddd" rx="10" />
  
  <!-- Legs -->
  <rect x="290" y="380" width="20" height="100" fill="#ddd" rx="10" />
  <rect x="340" y="380" width="20" height="100" fill="#ddd" rx="10" />
  <ellipse cx="300" cy="480" rx="20" ry="10" fill="#333" />
  <ellipse cx="350" cy="480" rx="20" ry="10" fill="#333" />
  
  <!-- Decorative elements -->
  <circle cx="325" cy="200" r="10" fill="#ff0" />
  <circle cx="280" cy="210" r="5" fill="#0d6efd" />
  <circle cx="370" cy="210" r="5" fill="#0d6efd" />
  <line x1="250" y1="340" x2="230" y2="360" stroke="#0d6efd" stroke-width="2" />
  <line x1="250" y1="360" x2="230" y2="340" stroke="#0d6efd" stroke-width="2" />
  
  <!-- Small abstract elements to match image style -->
  <circle cx="180" cy="150" r="8" fill="#0d6efd" opacity="0.5" />
  <circle cx="190" cy="140" r="5" fill="#0d6efd" opacity="0.5" />
  <circle cx="420" cy="150" r="8" fill="#0d6efd" opacity="0.5" />
  <circle cx="430" cy="140" r="5" fill="#0d6efd" opacity="0.5" />
  <circle cx="450" cy="380" r="8" fill="#0d6efd" opacity="0.5" />
  <circle cx="460" cy="370" r="5" fill="#0d6efd" opacity="0.5" />
  
  <!-- Floating elements -->
  <rect x="450" y="120" width="30" height="15" fill="#ddd" rx="2" />
  <rect x="455" y="125" width="20" height="5" fill="#0d6efd" rx="1" />
  <rect x="150" y="320" width="30" height="15" fill="#ddd" rx="2" />
  <rect x="155" y="325" width="20" height="5" fill="#0d6efd" rx="1" />
  <rect x="400" y="400" width="30" height="15" fill="#ddd" rx="2" />
  <rect x="405" y="405" width="20" height="5" fill="#0d6efd" rx="1" />
  
  <!-- Abstract lines -->
  <path d="M150,200 C170,210 180,190 200,200" stroke="#ddd" stroke-width="2" fill="none" />
  <path d="M450,200 C430,210 420,190 400,200" stroke="#ddd" stroke-width="2" fill="none" />
  <path d="M450,300 C470,310 480,290 500,300" stroke="#ddd" stroke-width="2" fill="none" />
  <path d="M200,400 C180,410 170,390 150,400" stroke="#ddd" stroke-width="2" fill="none" />
</svg> 