<svg width="32" height="32" viewBox="0 0 32 32" fill="none" xmlns="http://www.w3.org/2000/svg">
<path d="M7.02535 14.0002C7.02205 12.8195 7.25176 11.6497 7.70133 10.5579C8.15089 9.46608 8.81147 8.47371 9.64522 7.63763C10.479 6.80155 11.4695 6.1382 12.56 5.68559C13.6506 5.23298 14.8197 5 16.0005 5C17.1812 5 18.3503 5.23298 19.4409 5.68559C20.5314 6.1382 21.522 6.80155 22.3557 7.63763C23.1895 8.47371 23.85 9.46608 24.2996 10.5579C24.7492 11.6497 24.9789 12.8195 24.9756 14.0002C24.9756 18.4772 25.9122 21.0751 26.7372 22.495C26.8261 22.6467 26.8734 22.8192 26.8743 22.995C26.8752 23.1708 26.8298 23.3438 26.7426 23.4965C26.6553 23.6491 26.5294 23.7761 26.3774 23.8645C26.2254 23.953 26.0528 23.9998 25.877 24.0002H6.12292C5.94707 23.9998 5.77445 23.9529 5.62248 23.8645C5.4705 23.776 5.34454 23.649 5.25731 23.4963C5.17008 23.3437 5.12465 23.1707 5.12563 22.9948C5.1266 22.819 5.17393 22.6465 5.26284 22.4948C6.08825 21.0748 7.02534 18.4769 7.02534 14.0002H7.02535Z" fill="#E7F6EA" stroke="#0BA02C" stroke-width="2" stroke-linecap="round" stroke-linejoin="round"/>
<path d="M12 24V25C12 26.0609 12.4214 27.0783 13.1716 27.8284C13.9217 28.5786 14.9391 29 16 29C17.0609 29 18.0783 28.5786 18.8284 27.8284C19.5786 27.0783 20 26.0609 20 25V24" stroke="#0BA02C" stroke-width="2" stroke-linecap="round" stroke-linejoin="round"/>
<path d="M22.9291 2.99902C24.9639 4.2836 26.6042 6.10545 27.6689 8.26347" stroke="#0BA02C" stroke-width="2" stroke-linecap="round" stroke-linejoin="round"/>
<path d="M4.33118 8.26348C5.39587 6.10545 7.03617 4.2836 9.07099 2.99902" stroke="#0BA02C" stroke-width="2" stroke-linecap="round" stroke-linejoin="round"/>
</svg>
